<svg xmlns="http://www.w3.org/2000/svg" viewBox="0 0 480 480"><path d="M135.3 200.7c0 5.9.6 10.7 1.8 14.2 1.3 3.5 2.9 7.3 5.1 11.5.8 1.3 1.1 2.6 1.1 3.7 0 1.6-1 3.2-3 4.8l-10.1 6.7c-1.4 1-2.9 1.4-4.2 1.4-1.6 0-3.2-.8-4.8-2.2-2.2-2.4-4.2-4.9-5.7-7.5-1.6-2.7-3.2-5.7-4.9-9.4-12.5 14.7-28.1 22-46.9 22-13.4 0-24.1-3.8-31.9-11.5S20 216.5 20 203.7c0-13.6 4.8-24.6 14.5-32.9s22.7-12.5 39.1-12.5c5.4 0 11 .5 16.9 1.3s12 2.1 18.4 3.5v-11.7c0-12.1-2.6-20.6-7.5-25.5-5.1-4.9-13.7-7.3-26-7.3-5.6 0-11.3.6-17.2 2.1-5.9 1.4-11.7 3.2-17.2 5.4-2.6 1.1-4.5 1.8-5.6 2.1s-1.9.5-2.6.5c-2.2 0-3.4-1.6-3.4-4.9V116c0-2.6.3-4.5 1.1-5.6.8-1.1 2.2-2.2 4.5-3.4 5.6-2.9 12.3-5.3 20.1-7.2 7.8-2.1 16.1-3 24.9-3 19 0 32.9 4.3 41.8 12.9 8.8 8.6 13.3 21.7 13.3 39.3v51.7h.2zM70.5 225c5.3 0 10.7-1 16.4-2.9s10.9-5.4 15.2-10.2c2.6-3 4.5-6.4 5.4-10.2s1.6-8.5 1.6-13.9v-6.7c-4.6-1.1-9.6-2.1-14.7-2.7-5.1-.6-10.1-1-15-1-10.7 0-18.5 2.1-23.8 6.4-5.3 4.3-7.8 10.4-7.8 18.4 0 7.5 1.9 13.1 5.9 16.9 3.8 4 9.4 5.9 16.8 5.9zm128.1 17.2c-2.9 0-4.8-.5-6.1-1.6-1.3-1-2.4-3.2-3.4-6.2L151.7 111c-1-3.2-1.4-5.3-1.4-6.4 0-2.6 1.3-4 3.8-4h15.6c3 0 5.1.5 6.2 1.6 1.3 1 2.2 3.2 3.2 6.2L206 214.1l24.9-105.7c.8-3.2 1.8-5.3 3-6.2 1.3-1 3.5-1.6 6.4-1.6h12.8c3 0 5.1.5 6.4 1.6 1.3 1 2.4 3.2 3 6.2l25.2 107 27.6-107c1-3.2 2.1-5.3 3.2-6.2 1.3-1 3.4-1.6 6.2-1.6h14.8c2.6 0 4 1.3 4 4 0 .8-.2 1.6-.3 2.6-.2 1-.5 2.2-1.1 4l-38.5 123.4c-1 3.2-2.1 5.3-3.4 6.2s-3.4 1.6-6.1 1.6h-13.7c-3 0-5.1-.5-6.4-1.6s-2.4-3.2-3-6.4l-24.7-103-24.6 102.8c-.8 3.2-1.8 5.3-3 6.4-1.3 1.1-3.5 1.6-6.4 1.6h-13.7zm205.2 4.3c-8.3 0-16.6-1-24.6-2.9s-14.2-4-18.4-6.4c-2.6-1.4-4.3-3-4.9-4.5-.6-1.4-1-3-1-4.5v-8.1c0-3.4 1.3-4.9 3.7-4.9 1 0 1.9.2 2.9.5s2.4 1 4 1.6c5.4 2.4 11.3 4.3 17.6 5.6 6.4 1.3 12.6 1.9 19 1.9 10.1 0 17.9-1.8 23.3-5.3s8.3-8.6 8.3-15.2c0-4.5-1.4-8.1-4.3-11.2-2.9-3-8.3-5.7-16.1-8.3l-23.1-7.2c-11.7-3.7-20.3-9.1-25.5-16.3-5.3-7-8-14.8-8-23.1 0-6.7 1.4-12.6 4.3-17.7s6.7-9.6 11.5-13.1c4.8-3.7 10.2-6.4 16.6-8.3s13.1-2.7 20.1-2.7c3.5 0 7.2.2 10.7.6 3.7.5 7 1.1 10.4 1.8 3.2.8 6.2 1.6 9.1 2.6s5.1 1.9 6.7 2.9c2.2 1.3 3.8 2.6 4.8 4 1 1.3 1.4 3 1.4 5.3v7.5c0 3.4-1.3 5.1-3.7 5.1-1.3 0-3.4-.6-6.1-1.9-9.1-4.2-19.3-6.2-30.7-6.2-9.1 0-16.3 1.4-21.2 4.5-4.9 3-7.5 7.7-7.5 14.2 0 4.5 1.6 8.3 4.8 11.3 3.2 3 9.1 6.1 17.6 8.8l22.7 7.2c11.5 3.7 19.8 8.8 24.7 15.3s7.3 14 7.3 22.4c0 6.9-1.4 13.1-4.2 18.5-2.9 5.4-6.7 10.2-11.7 14-4.9 4-10.9 6.9-17.7 8.9-7.2 2.2-14.7 3.3-22.8 3.3z" fill="#252f3e"></path><path fill-rule="evenodd" clip-rule="evenodd" fill="#f90" d="M434 324.1c-52.5 38.8-128.8 59.4-194.4 59.4-92 0-174.8-34-237.4-90.5-4.9-4.5-.5-10.5 5.4-7 67.6 39.2 151.1 63 237.5 63 58.3 0 122.3-12.1 181.2-37 8.8-4 16.3 5.7 7.7 12.1z"></path><path fill-rule="evenodd" clip-rule="evenodd" fill="#f90" d="M455.8 299.2c-6.7-8.6-44.4-4.2-61.5-2.1-5.1.6-5.9-3.8-1.3-7.2 30-21.1 79.3-15 85.1-8 5.7 7.2-1.6 56.5-29.7 80.1-4.3 3.7-8.5 1.8-6.5-3 6.4-15.7 20.6-51.3 13.9-59.8z"></path></svg>