<?xml version="1.0" encoding="utf-8"?>
<!-- Generator: Adobe Illustrator 25.0.0, SVG Export Plug-In . SVG Version: 6.00 Build 0)  -->
<svg version="1.1" id="Layer_1" xmlns="http://www.w3.org/2000/svg" xmlns:xlink="http://www.w3.org/1999/xlink" x="0px" y="0px"
	 viewBox="0 0 121 90" style="enable-background:new 0 0 121 90;" xml:space="preserve">
<style type="text/css">
	.st0{fill:#060606;}
	.st1{fill:#01B054;}
</style>
<desc>Created with Sketch.</desc>
<g>
	<path class="st0" d="M120.1,62.8c0-8.2-5.4-16.6-16-17.5c0.6-2.6,1-5,1-7.4c0-16.3-14-28.2-28.9-28.2c-7,0-14,2.6-20,8.6V33h18.5
		v15.6h18.5v19.7H15.3V52.6H6.8c-0.5,2-0.8,4-0.8,5.9c0,9.4,6.2,18.1,15.7,20.9c2.3,0.6,1.7,0.8,17.8,0.8c11.2,0,30.6-0.1,64.8-0.1
		C114.9,79.1,120.1,71,120.1,62.8z"/>
	<path class="st1" d="M37.8,37h32.9v11.6H37.8L37.8,37z M19.3,21.3h32.9v11.6H19.3V21.3z M0.9,37h32.9v11.6H0.9V37z M19.3,52.6h32.9
		v11.6H19.3V52.6z M56.3,52.6h32.9v11.6H56.3V52.6z"/>
</g>
</svg>
