<?xml version="1.0" encoding="utf-8"?>
<!-- Generator: Adobe Illustrator 25.2.0, SVG Export Plug-In . SVG Version: 6.00 Build 0)  -->
<svg version="1.1" id="Layer_1" xmlns="http://www.w3.org/2000/svg" xmlns:xlink="http://www.w3.org/1999/xlink" x="0px" y="0px"
	 width="99.4px" height="99.4px" viewBox="0 0 99.4 99.4" style="enable-background:new 0 0 99.4 99.4;" xml:space="preserve">
<style type="text/css">
	.st0{fill:#FFFFFF;}
	.st1{fill:#22AF5E;}
</style>
<g>
	<g>
		<g>
			<rect x="11.3" y="11.8" class="st0" width="77.3" height="77.3"/>
			<path d="M89.8,91.8H10.3c-0.8,0-1.4-0.7-1.4-1.4V10.8c0-0.8,0.7-1.4,1.4-1.4h79.6c0.8,0,1.4,0.7,1.4,1.4v79.6
				C91.3,91.1,90.6,91.8,89.8,91.8z M13.8,88.1h72.4c0.8,0,1.3-0.6,1.3-1.3V14.3c0-0.8-0.6-1.3-1.3-1.3H13.8c-0.8,0-1.3,0.6-1.3,1.3
				v72.4C12.4,87.5,13,88.1,13.8,88.1z"/>
		</g>
		<path class="st1" d="M12.4,86.7V14.3c0-0.7,0.6-1.3,1.3-1.3H29v75.1H13.8C13,88.1,12.4,87.5,12.4,86.7z"/>
		<path class="st1" d="M72.9,54.3c1.3-5.4-2-10.9-7.4-12.4c-4.8-1.1-9.6,1.1-11.7,5.5c-2-1.8-5.1-1.7-6.9,0.4
			c-0.9,0.9-1.2,2.1-1.2,3.3v0.1c-4.3,0.1-7.7,3.6-7.7,7.9c0.1,4.1,3.2,7.4,7.3,7.6H73c3.4-0.4,6-3.4,5.6-6.8
			C78.3,56.9,76,54.5,72.9,54.3z"/>
		<rect x="37.9" y="18.2" class="st1" width="18.7" height="7.2"/>
	</g>
	<polygon class="st0" points="29.7,25.4 18.5,38.1 29.7,50.8 	"/>
</g>
</svg>
