<?xml version="1.0" encoding="utf-8"?>
<!-- Generator: Adobe Illustrator 25.0.0, SVG Export Plug-In . SVG Version: 6.00 Build 0)  -->
<svg version="1.1" id="Layer_1" xmlns="http://www.w3.org/2000/svg" xmlns:xlink="http://www.w3.org/1999/xlink" x="0px" y="0px"
	 viewBox="0 0 121 90" style="enable-background:new 0 0 121 90;" xml:space="preserve">
<style type="text/css">
	.st0{fill:#00A64F;}
	.st1{fill:#FFFFFF;stroke:#040404;stroke-width:3.719;stroke-linecap:round;stroke-linejoin:round;}
</style>
<desc>Created with Sketch.</desc>
<g>
	<path class="st0" d="M97.1,14.5c-15.2,0-26.7-4.3-36.6-13.9c-9.8,9.6-21.4,13.9-36.6,13.9c0,24.9-5.1,60.4,36.6,74.9
		C102.2,75,97.1,39.4,97.1,14.5z"/>
	<path class="st1" d="M77.3,42.2c1.6-6.3-2.2-12.6-8.4-14.2c-5.5-1.4-11.2,1.3-13.5,6.4c-2.3-2.1-5.9-2-8,0.4c-1,1-1.5,2.4-1.5,3.8
		v0.1c-4.9,0-8.9,4.1-8.9,9c0,4.7,3.8,8.6,8.5,8.9l31.9,0c4-0.4,6.9-3.9,6.4-7.9C83.5,45.2,80.8,42.5,77.3,42.2L77.3,42.2z"/>
</g>
</svg>
