<?xml version="1.0" encoding="utf-8"?>
<!-- Generator: Adobe Illustrator 25.0.0, SVG Export Plug-In . SVG Version: 6.00 Build 0)  -->
<svg version="1.1" id="Layer_1" xmlns="http://www.w3.org/2000/svg" xmlns:xlink="http://www.w3.org/1999/xlink" x="0px" y="0px"
	 viewBox="0 0 121 90" style="enable-background:new 0 0 121 90;" xml:space="preserve">
<style type="text/css">
	.st0{fill:#2EBA6E;}
	.st1{clip-path:url(#SVGID_2_);}
	.st2{fill:#231F20;}
	.st3{fill:none;stroke:#231F20;stroke-width:4.4705;stroke-miterlimit:10;}
	.st4{fill:#FFFFFF;}
	.st5{clip-path:url(#SVGID_4_);}
	.st6{clip-path:url(#SVGID_6_);}
</style>
<g id="f2f633d2-2e95-4d08-b934-b5d2d6616b7f">
	<g id="a85a6253-7f36-4420-b30f-e00689ba2702">
		<g>
			<g>
				<path class="st0" d="M20,14.3h19.6c0.8,0,1.4,0.6,1.4,1.4v69.9c0,0.8-0.6,1.4-1.4,1.4H20c-0.8,0-1.4-0.6-1.4-1.4V15.7
					C18.6,14.9,19.2,14.3,20,14.3z"/>
				<g>
					<defs>
						<path id="SVGID_1_" d="M20,14.3h19.6c0.8,0,1.4,0.6,1.4,1.4v69.9c0,0.8-0.6,1.4-1.4,1.4H20c-0.8,0-1.4-0.6-1.4-1.4V15.7
							C18.6,14.9,19.2,14.3,20,14.3z"/>
					</defs>
					<clipPath id="SVGID_2_">
						<use xlink:href="#SVGID_1_"  style="overflow:visible;"/>
					</clipPath>
					<g class="st1">
						<path class="st2" d="M18.6,21.3h22.4V24H18.6V21.3z"/>
					</g>
				</g>
				<path class="st3" d="M20,14.3h19.6c0.8,0,1.4,0.6,1.4,1.4v69.9c0,0.8-0.6,1.4-1.4,1.4H20c-0.8,0-1.4-0.6-1.4-1.4V15.7
					C18.6,14.9,19.2,14.3,20,14.3z"/>
			</g>
			<g>
				<path class="st4" d="M42.3,3.1h18.2c0.8,0,1.4,0.6,1.4,1.4v81c0,0.8-0.6,1.4-1.4,1.4H42.3c-0.8,0-1.4-0.6-1.4-1.4v-81
					C40.9,3.7,41.5,3.1,42.3,3.1z"/>
				<g>
					<defs>
						<path id="SVGID_3_" d="M42.3,3.1h18.2c0.8,0,1.4,0.6,1.4,1.4v81c0,0.8-0.6,1.4-1.4,1.4H42.3c-0.8,0-1.4-0.6-1.4-1.4v-81
							C40.9,3.7,41.5,3.1,42.3,3.1z"/>
					</defs>
					<clipPath id="SVGID_4_">
						<use xlink:href="#SVGID_3_"  style="overflow:visible;"/>
					</clipPath>
					<g class="st5">
						<g>
							<path class="st0" d="M40.9,11.5h21v2.8h-21V11.5z"/>
							<path class="st0" d="M40.9,18.5h21v2.8h-21V18.5z"/>
						</g>
					</g>
				</g>
				<path class="st3" d="M42.3,3.1h18.2c0.8,0,1.4,0.6,1.4,1.4v81c0,0.8-0.6,1.4-1.4,1.4H42.3c-0.8,0-1.4-0.6-1.4-1.4v-81
					C40.9,3.7,41.5,3.1,42.3,3.1z"/>
			</g>
			<g>
				<path class="st0" d="M101.4,81.3l-21,5.6c-0.1,0-0.2,0-0.4,0c-0.2,0-0.5-0.1-0.7-0.2c-0.3-0.2-0.6-0.5-0.7-0.9L61.9,21.6
					c-0.2-0.7,0.3-1.5,1-1.7l21-5.6c0.8-0.2,1.5,0.3,1.7,1l16.8,64.3C102.5,80.3,102.1,81.1,101.4,81.3z"/>
				<g>
					<defs>
						<path id="SVGID_5_" d="M101.4,81.3l-21,5.6c-0.1,0-0.2,0-0.4,0c-0.2,0-0.5-0.1-0.7-0.2c-0.3-0.2-0.6-0.5-0.7-0.9L61.9,21.6
							c-0.2-0.7,0.3-1.5,1-1.7l21-5.6c0.8-0.2,1.5,0.3,1.7,1l16.8,64.3C102.5,80.3,102.1,81.1,101.4,81.3z"/>
					</defs>
					<clipPath id="SVGID_6_">
						<use xlink:href="#SVGID_5_"  style="overflow:visible;"/>
					</clipPath>
					<g class="st6">
						<path class="st4" d="M87.6,23.2L64,29.4l0.7,2.7l23.7-6.2L87.6,23.2z"/>
						<path class="st4" d="M100,70.4l-23.7,6.2l0.7,2.7l23.7-6.2L100,70.4z"/>
					</g>
				</g>
				<path class="st3" d="M101.4,81.3l-21,5.6c-0.1,0-0.2,0-0.4,0c-0.2,0-0.5-0.1-0.7-0.2c-0.3-0.2-0.6-0.5-0.7-0.9L61.9,21.6
					c-0.2-0.7,0.3-1.5,1-1.7l21-5.6c0.8-0.2,1.5,0.3,1.7,1l16.8,64.3C102.5,80.3,102.1,81.1,101.4,81.3z"/>
			</g>
			<path class="st4" d="M24.2,28.2h11.2c0.8,0,1.4,0.6,1.4,1.4v11.2c0,0.8-0.6,1.4-1.4,1.4H24.2c-0.8,0-1.4-0.6-1.4-1.4V29.6
				C22.8,28.9,23.4,28.2,24.2,28.2z"/>
			<path class="st4" d="M72.1,33.7L83,30.9c0.7-0.2,1.5,0.3,1.7,1l2.8,10.8c0.2,0.7-0.3,1.5-1,1.7l-10.8,2.8c-0.7,0.2-1.5-0.3-1.7-1
				l-2.8-10.8C71,34.6,71.4,33.9,72.1,33.7z"/>
		</g>
	</g>
</g>
</svg>
