<svg enable-background="new 0 0 121 90" viewBox="0 0 121 90" xmlns="http://www.w3.org/2000/svg"><path d="m25.3 24v42l36.3 21 36.4-21v-42l-36.4-21z" fill="#00b050"/><path d="m61.6 89-38.1-22v-44l38.1-22 38.1 22v44zm-34.5-24 34.6 19.9 34.5-19.9v-40l-34.6-19.9-34.5 19.9z" fill="#231f20"/><g fill="#fff"><path d="m35.4 35.7h4.1v18.2h-4.1z"/><path d="m43.7 35.7h6.6c4 0 7.1 1.4 7.1 5.8 0 4.3-3.3 6.2-7.1 6.2h-2.5v6.2h-4.1zm6.4 8.7c2.3 0 3.3-1 3.3-2.9s-1.2-2.6-3.3-2.6h-2.3v5.5z"/><path d="m59.4 40h4.1l1.8 6.5c.4 1.4.7 2.8 1.1 4.3h.1c.3-1.4.7-2.9 1.1-4.3l1.8-6.5h3.9l-4.5 13.8h-4.8z"/><path d="m85.5 40.4c-.6-.7-1.7-1.3-2.8-1.3-1.9 0-3.5 1.4-3.6 5.5.9-1.2 2.5-1.9 3.5-1.9 3 0 5.3 1.7 5.3 5.5 0 3.7-2.7 5.9-5.9 5.9-3.4 0-6.7-2.6-6.7-8.8 0-6.6 3.4-9.6 7.2-9.6 2.3 0 4 1 5.1 2.1zm-1.4 7.8c0-1.9-1-2.6-2.3-2.6-.9 0-1.9.5-2.7 1.8.4 2.8 1.5 3.7 2.8 3.7 1.2 0 2.2-.9 2.2-2.9z"/></g></svg>