<svg enable-background="new 0 0 121 90" viewBox="0 0 121 90" xmlns="http://www.w3.org/2000/svg"><g fill="#1ab060"><path d="m61.35 45.85-1.7-1.7-25.38 21.43-3.2-3.19-2.34 14.39 14.39-2.35-3.2-3.2z"/><path d="m92.27 13.22-14.39 2.35 3.2 3.2-21.43 25.38 1.7 1.7 25.38-21.43 3.2 3.19z"/><path d="m61.35 44.15-21.43-25.38 3.19-3.2-14.39-2.34 2.35 14.39 3.2-3.2 25.38 21.43z"/><path d="m92.28 76.77-2.35-14.39-3.2 3.2-25.38-21.43-1.7 1.7 21.43 25.38-3.19 3.2z"/><path d="m105.44 44.99-11.84-8.51v4.52l-31.79 2.69 2.68-31.79h4.52l-8.52-11.84-8.51 11.84h4.52l2.69 31.79-31.79-2.68v-4.52l-11.84 8.52 11.84 8.51v-4.52l31.79-2.69-2.68 31.79h-4.52l8.52 11.84 8.51-11.84h-4.52l-2.69-31.79 31.79 2.68v4.52z"/></g><path d="m80.03 41.94c.24-1.01.36-2.06.36-3.14 0-7.52-6.1-13.62-13.62-13.61-5.4 0-10.06 3.14-12.27 7.7-1.18-1.08-2.75-1.75-4.47-1.74-3.64 0-6.6 2.96-6.6 6.6v.16c-5.69.05-10.28 4.68-10.28 10.38 0 5.56 4.38 10.1 9.88 10.37l37.09-.02c4.32-.33 7.72-3.94 7.72-8.34.02-4.45-3.44-8.08-7.81-8.36z" fill="#fff" stroke="#333232" stroke-linecap="round" stroke-miterlimit="10" stroke-width="3"/></svg>