<?xml version="1.0" encoding="utf-8"?>
<!-- Generator: Adobe Illustrator 23.0.4, SVG Export Plug-In . SVG Version: 6.00 Build 0)  -->
<svg version="1.1" id="Layer_1" xmlns="http://www.w3.org/2000/svg" xmlns:xlink="http://www.w3.org/1999/xlink" x="0px" y="0px"
	 viewBox="0 0 120.96 90" style="enable-background:new 0 0 120.96 90;" xml:space="preserve">
<style type="text/css">
	.st0{fill:#FFFFFF;stroke:#333232;stroke-width:3;stroke-linecap:round;stroke-miterlimit:10;}
	.st1{fill:#1AB060;stroke:#333232;stroke-width:3;stroke-linecap:round;stroke-miterlimit:10;}
	.st2{fill:#FFFFFF;}
</style>
<g>
	<path class="st0" d="M93.51,57.01l9.17-9.17c1.57-1.57,1.57-4.12,0-5.69l-9.17-9.17c-0.75-0.75-1.18-1.78-1.18-2.85V17.17
		c0-2.22-1.8-4.03-4.03-4.03H75.35c-1.07,0-2.09-0.42-2.85-1.18L63.34,2.8c-1.57-1.57-4.12-1.57-5.69,0l-9.17,9.17
		c-0.75,0.75-1.78,1.18-2.85,1.18H32.66c-2.22,0-4.03,1.8-4.03,4.03v12.97c0,1.07-0.42,2.09-1.18,2.85l-9.17,9.17
		c-1.57,1.57-1.57,4.12,0,5.69l9.17,9.17c0.75,0.75,1.18,1.78,1.18,2.85v12.97c0,2.22,1.8,4.03,4.03,4.03h12.97
		c1.07,0,2.09,0.42,2.85,1.18l9.17,9.17c1.57,1.57,4.12,1.57,5.69,0l9.17-9.17c0.75-0.75,1.78-1.18,2.85-1.18h12.97
		c2.22,0,4.03-1.8,4.03-4.03V59.86C92.33,58.79,92.76,57.77,93.51,57.01z"/>
	<g>
		<circle class="st1" cx="60.49" cy="45" r="25.85"/>
		<g>
			<path class="st2" d="M59,61.55v-3.87c-1.14-0.13-2.33-0.45-3.58-0.95s-2.33-1.17-3.23-1.99l2.48-3.83
				c0.98,0.75,1.92,1.31,2.81,1.68c0.89,0.37,1.8,0.56,2.73,0.56c1.08,0,1.88-0.22,2.38-0.66s0.75-1.11,0.75-2.01
				c0-0.67-0.25-1.24-0.75-1.7s-1.14-0.91-1.9-1.34c-0.76-0.43-1.58-0.85-2.46-1.28c-0.88-0.43-1.7-0.93-2.46-1.53
				s-1.39-1.29-1.9-2.09c-0.5-0.8-0.75-1.78-0.75-2.94c0-1.91,0.52-3.49,1.57-4.74c1.04-1.25,2.48-2.06,4.32-2.42v-3.99h3.75v3.91
				c1.24,0.18,2.32,0.56,3.25,1.12c0.93,0.57,1.77,1.25,2.52,2.05l-2.86,3.25c-0.7-0.65-1.37-1.13-2.01-1.45
				c-0.65-0.32-1.38-0.48-2.21-0.48c-0.93,0-1.64,0.19-2.13,0.58c-0.49,0.39-0.74,1.02-0.74,1.9c0,0.62,0.25,1.14,0.75,1.57
				s1.13,0.83,1.9,1.22c0.76,0.39,1.58,0.79,2.46,1.2s1.7,0.92,2.46,1.51s1.39,1.31,1.9,2.15c0.5,0.84,0.75,1.88,0.75,3.12
				c0,1.86-0.5,3.45-1.51,4.78c-1.01,1.33-2.52,2.21-4.53,2.65v4.03H59V61.55z"/>
		</g>
	</g>
</g>
</svg>
