<?xml version="1.0" encoding="utf-8"?>
<!-- Generator: Adobe Illustrator 23.0.4, SVG Export Plug-In . SVG Version: 6.00 Build 0)  -->
<svg version="1.1" id="Layer_1" xmlns="http://www.w3.org/2000/svg" xmlns:xlink="http://www.w3.org/1999/xlink" x="0px" y="0px"
	 viewBox="0 0 100 100" style="enable-background:new 0 0 100 100;" xml:space="preserve">
<style type="text/css">
	.st0{fill:#10B057;}
	.st1{clip-path:url(#SVGID_2_);}
	.st2{fill:none;stroke:#010101;stroke-width:3.337;stroke-linejoin:round;}
</style>
<title>oneClickApps</title>
<g>
	<g id="Layer_1-2">
		<path class="st0" d="M42.4,32.3c4-5,3.2-12.3-1.7-16.3s-12.3-3.2-16.3,1.7S21.1,30,26.1,34c0.9,0.8,2,1.4,3.1,1.8l-0.6-2.1
			c-4.8-2.6-6.6-8.6-4-13.4s8.6-6.6,13.4-4c4.8,2.6,6.6,8.6,4,13.4c-0.1,0.2-0.2,0.3-0.3,0.5L42.4,32.3z"/>
		<g>
			<defs>
				<path id="SVGID_1_" d="M78.1,65.3c-0.1-0.5-0.2-1-0.3-1.5l-3.7-13.9l-1.2-4.6c-0.7-2.5-3.2-4-5.8-3.3c-0.1,0-0.3,0.1-0.4,0.1
					c-2.3,0.8-3.6,3.3-2.9,5.6l-0.8-3.2c-0.3-1.2-1.1-2.3-2.2-2.9c-0.7-0.5-1.6-0.7-2.5-0.7c-2.6,0.1-4.6,2.2-4.6,4.8c0,0,0,0,0,0
					c0,0.4,0.1,0.8,0.2,1.1l-0.3-1.1l-0.7-2.6c-0.6-2.2-2.7-3.7-5-3.5c-0.3,0-0.6,0.1-0.8,0.1c-0.9,0.2-1.6,0.7-2.2,1.4
					c-1.1,1.2-1.5,2.8-1.1,4.4l-0.8-3.1L38,24.3c-0.7-2.5-3.2-4-5.8-3.3s-4,3.2-3.3,5.8l3.6,13.4l3.3,12.3l2.8,10.3l-4.1-4.1l-6-6
					c-1.5-1.6-3.9-1.9-5.8-0.8c-2.2,1.4-2.9,4.3-1.5,6.5c0.2,0.3,0.4,0.6,0.7,0.8c6.5,6.7,11.2,12.1,18.1,19.3
					c2.6,2.7,4.9,5.7,8.1,7.7c0.5,0.3,1,0.6,1.6,0.8c4.1,1.9,8.8,2.4,13.3,1.4l0.6-0.2C73.5,85.6,79.9,75.6,78.1,65.3z"/>
			</defs>
			<clipPath id="SVGID_2_">
				<use xlink:href="#SVGID_1_"  style="overflow:visible;"/>
			</clipPath>
			<g class="st1">
				<path class="st0" d="M67.4,41c-1-0.5-2.1-0.8-3.2-1.1c8.5,9.1,8,23.3-1,31.8c-6.4,6-15.8,7.8-24,4.4c-0.9-0.4-1.7-0.8-2.5-1.3
					c2.6,4.8,6.7,8.6,11.7,10.7c12.3,5.3,26.5-0.4,31.8-12.7S79.7,46.2,67.4,41z"/>
			</g>
		</g>
		<path class="st2" d="M78.1,65.3c-0.1-0.5-0.2-1-0.3-1.5l-3.7-13.9l-1.2-4.6c-0.7-2.5-3.2-4-5.8-3.3c-0.1,0-0.3,0.1-0.4,0.1
			c-2.3,0.8-3.6,3.3-2.9,5.6l-0.8-3.2c-0.3-1.2-1.1-2.3-2.2-2.9c-0.7-0.5-1.6-0.7-2.5-0.7c-2.6,0.1-4.6,2.2-4.6,4.8c0,0,0,0,0,0
			c0,0.4,0.1,0.8,0.2,1.1l-0.3-1.1l-0.7-2.6c-0.6-2.2-2.7-3.7-5-3.5c-0.3,0-0.6,0.1-0.8,0.1c-0.9,0.2-1.6,0.7-2.2,1.4
			c-1.1,1.2-1.5,2.8-1.1,4.4l-0.8-3.1L38,24.3c-0.7-2.5-3.2-4-5.8-3.3s-4,3.2-3.3,5.8l3.6,13.4l3.3,12.3l2.8,10.3l-4.1-4.1l-6-6
			c-1.5-1.6-3.9-1.9-5.8-0.8c-2.2,1.4-2.9,4.3-1.5,6.5c0.2,0.3,0.4,0.6,0.7,0.8c6.5,6.7,11.2,12.1,18.1,19.3
			c2.6,2.7,4.9,5.7,8.1,7.7c0.5,0.3,1,0.6,1.6,0.8c4.1,1.9,8.8,2.4,13.3,1.4l0.6-0.2C73.5,85.6,79.9,75.6,78.1,65.3z"/>
		<path class="st0" d="M30.5,40.8L30.1,39c-3-0.7-5.6-2.3-7.6-4.7c-1.4-1.6-2.4-3.5-3-5.6c-2.1-7.7,2.4-15.5,10.1-17.6
			s15.5,2.4,17.6,10.1c1.4,5.1-0.2,10.6-4,14.2l0.5,1.8c6.8-5.7,7.6-15.8,1.9-22.6S29.8,7,23,12.8c-4.8,4-6.8,10.4-5.1,16.4
			c0.3,1.1,0.7,2.2,1.3,3.3C21.5,36.8,25.7,39.9,30.5,40.8z"/>
	</g>
</g>
</svg>
