<?xml version="1.0" encoding="utf-8"?>
<!-- Generator: Adobe Illustrator 23.0.4, SVG Export Plug-In . SVG Version: 6.00 Build 0)  -->
<svg version="1.1" id="Layer_1" xmlns="http://www.w3.org/2000/svg" xmlns:xlink="http://www.w3.org/1999/xlink" x="0px" y="0px"
	 viewBox="0 0 121 90" style="enable-background:new 0 0 121 90;" xml:space="preserve">
<style type="text/css">
	.st0{fill:none;stroke:#010101;stroke-width:3;stroke-linejoin:round;}
	.st1{fill:none;stroke:#10B057;stroke-width:3;stroke-linejoin:round;}
	.st2{fill:#010101;}
</style>
<title>API</title>
<g>
	<g id="Layer_1-2">
		<path class="st0" d="M103.82,52.47V37.53h-10.4c-0.76-3.36-1.95-6.5-3.68-9.42c-0.22-0.32-0.43-0.76-0.65-1.08l7.36-7.36
			L85.84,9.15l-7.36,7.36c-3.25-2.06-6.82-3.47-10.51-4.33V1.68H53.03v10.4c-3.68,0.87-7.26,2.27-10.51,4.33l-7.36-7.36L24.65,19.66
			l7.36,7.36c-0.22,0.32-0.43,0.76-0.65,1.08c-1.73,2.92-2.92,6.06-3.68,9.42H17.18v14.95h10.4c0.87,3.68,2.27,7.26,4.33,10.51
			l-7.36,7.36l10.51,10.61l7.36-7.36c3.25,2.06,6.82,3.47,10.51,4.33v10.4h14.95v-10.4c3.68-0.87,7.26-2.27,10.51-4.33l7.36,7.36
			l10.61-10.61l-7.36-7.36c2.06-3.25,3.47-6.82,4.33-10.51L103.82,52.47z"/>
		<path class="st1" d="M83.35,48.9h-5.52c-0.43,1.95-1.19,3.79-2.27,5.52l3.9,3.9l-5.52,5.52l-3.9-3.9
			c-1.73,1.08-3.57,1.84-5.52,2.27v5.52H56.6v-5.42c-1.95-0.43-3.79-1.19-5.52-2.27l-3.9,3.9l-5.52-5.52l3.9-3.9
			c-1.08-1.73-1.84-3.57-2.27-5.52h-5.52V41.1h5.42c0.43-1.73,1.08-3.36,1.95-4.98c0.11-0.22,0.22-0.43,0.32-0.54l-3.9-3.9
			l5.52-5.52l3.9,3.9c1.73-1.08,3.57-1.84,5.52-2.27v-5.52h7.91v5.42c1.95,0.43,3.79,1.19,5.52,2.27l3.9-3.9l5.52,5.52l-3.9,3.9
			c0.11,0.22,0.22,0.43,0.32,0.54c0.87,1.52,1.52,3.25,1.95,4.98h5.52L83.35,48.9z"/>
		<path class="st2" d="M71.11,39.91c-0.11-0.32-0.32-0.54-0.43-0.87c-1.19-2.06-3.03-3.68-5.09-4.66c-0.32-0.22-0.76-0.32-1.08-0.43
			c-2.6-0.87-5.31-0.87-7.91,0c-0.43,0.11-0.76,0.32-1.08,0.43c-2.17,0.97-3.9,2.71-5.09,4.66c-0.11,0.32-0.32,0.54-0.43,0.87
			c-0.22,0.32-0.32,0.76-0.43,1.08c-0.87,2.6-0.87,5.31,0,7.91c0.11,0.43,0.32,0.76,0.43,1.08c1.19,2.49,3.14,4.44,5.52,5.52
			c0.32,0.22,0.76,0.32,1.08,0.43c1.3,0.43,2.6,0.65,3.9,0.65l0,0c1.3,0,2.71-0.22,3.9-0.65c0.32-0.11,0.76-0.32,1.08-0.43
			c2.49-1.19,4.44-3.14,5.52-5.52c0.22-0.32,0.32-0.76,0.43-1.08c0.87-2.6,0.87-5.31,0-7.91C71.44,40.67,71.33,40.34,71.11,39.91z
			 M60.5,51.06c-3.36,0-5.96-2.71-5.96-5.96l0,0c0-1.08,0.32-2.06,0.87-3.03c1.62-2.92,5.31-3.9,8.23-2.17
			c2.92,1.62,3.9,5.31,2.17,8.23C64.62,49.87,62.67,51.06,60.5,51.06L60.5,51.06z"/>
	</g>
</g>
</svg>
