<?xml version="1.0" encoding="utf-8"?>
<!-- Generator: Adobe Illustrator 25.0.0, SVG Export Plug-In . SVG Version: 6.00 Build 0)  -->
<svg version="1.1" id="Layer_1" xmlns="http://www.w3.org/2000/svg" xmlns:xlink="http://www.w3.org/1999/xlink" x="0px" y="0px"
	 viewBox="0 0 121 90" style="enable-background:new 0 0 121 90;" xml:space="preserve">
<style type="text/css">
	.st0{fill:none;stroke:#010101;stroke-width:4.5741;stroke-linejoin:round;}
	.st1{fill:#10B057;}
</style>
<desc>Created with Sketch.</desc>
<g>
	<g>
		<g id="Layer_1-2_1_">
			<path class="st0" d="M102.6,52.3V37.7H92.5c-0.7-3.2-1.9-6.2-3.5-9c-0.2-0.4-0.4-0.8-0.7-1.2l7.2-7.2L85.1,10.1L78,17.2
				c-3.2-2-6.6-3.4-10.2-4.2V2.9H53.2V13c-3.6,0.8-7,2.2-10.2,4.2l-7.2-7.2L25.7,20.4l7.2,7.2c-0.2,0.4-0.5,0.8-0.7,1.2
				c-1.6,2.8-2.8,5.9-3.5,9H18.4v14.5h10.1c0.8,3.6,2.2,7,4.2,10.2l-7.2,7.2l10.2,10.3l7.2-7.2c3.2,2,6.6,3.4,10.2,4.2v10.1h14.5V77
				c3.6-0.8,7-2.2,10.2-4.2l7.2,7.2l10.3-10.3l-7.2-7.2c2-3.2,3.4-6.6,4.2-10.2L102.6,52.3z"/>
			<path class="st1" d="M85.7,46.9h-10L73.1,41l-4.9,13.4l-3.3-8.1l-4.4,15.1l-2,6.9l-6.6-28.2l-1.7-7.4l-1.8,5.3l-3.1,8.8H35.3
				c-0.8,0.1-1.6-0.5-1.7-1.5c-0.1-0.8,0.5-1.6,1.5-1.7c0.1,0,0.2,0,0.2,0H43l2.5-7.4l5.2-14.8l4.8,20.6l3.3,14l1.7-5.8l1.9-6.4
				l2.1-7.2l2,4.7l1.7,4.1l2.3-6.4l2.4-6.6l1.8,4.1l3.1,6.9h8c0.8,0.1,1.5,0.8,1.5,1.7C87.1,46.3,86.5,46.9,85.7,46.9L85.7,46.9z"/>
		</g>
	</g>
</g>
</svg>
