<?xml version="1.0" encoding="utf-8"?>
<!-- Generator: Adobe Illustrator 25.2.3, SVG Export Plug-In . SVG Version: 6.00 Build 0)  -->
<svg version="1.1" id="Layer_1" xmlns="http://www.w3.org/2000/svg" xmlns:xlink="http://www.w3.org/1999/xlink" x="0px" y="0px"
	 viewBox="0 0 429.9 402.8" style="enable-background:new 0 0 429.9 402.8;" xml:space="preserve">
<style type="text/css">
	.st0{fill:#E86658;}
	.st1{fill:#E24C40;}
	.st2{fill:#C69E86;}
	.st3{fill:#010101;}
	.st4{fill:#8F6B52;}
	.st5{fill:#333232;}
	.st6{fill:#DCEADB;}
	.st7{fill:#AFD3AB;}
	.st8{fill:#4D606C;}
	.st9{fill:#FFFFFF;}
	.st10{fill:#181818;}
	.st11{fill:#343333;}
	.st12{fill:#1A1A1A;}
	.st13{filter:url(#Adobe_OpacityMaskFilter);}
	.st14{filter:url(#Adobe_OpacityMaskFilter_1_);}
	.st15{mask:url(#SVGID_1_);fill:url(#SVGID_2_);}
	.st16{opacity:0.91;fill:url(#SVGID_3_);}
	.st17{fill:#08AF54;}
	.st18{fill:#065C2F;}
	.st19{fill:#08AF54;stroke:#FFFFFF;stroke-width:0.2813;stroke-miterlimit:10;}
	.st20{fill:#FFFFFF;stroke:#FFFFFF;stroke-width:0.2813;stroke-miterlimit:10;}
	.st21{fill:#FFD100;}
	.st22{fill:#DCDDDE;stroke:#065C2F;stroke-width:0.5625;stroke-miterlimit:10;}
	.st23{fill:#02A762;}
	.st24{fill:url(#XMLID_3_);stroke:#32363B;stroke-width:0.485;stroke-miterlimit:10;}
	.st25{fill:#59BA58;stroke:#32363B;stroke-width:0.3641;stroke-linecap:round;stroke-linejoin:round;stroke-miterlimit:10;}
	.st26{fill:#037D3F;stroke:#32363B;stroke-width:0.3641;stroke-linecap:round;stroke-linejoin:round;stroke-miterlimit:10;}
	.st27{fill:#00B04F;stroke:#32363B;stroke-width:0.3641;stroke-linecap:round;stroke-linejoin:round;stroke-miterlimit:10;}
	.st28{fill:#F16382;stroke:#32363B;stroke-width:0.3641;stroke-linecap:round;stroke-linejoin:round;stroke-miterlimit:10;}
	.st29{fill:#A13F53;stroke:#32363B;stroke-width:0.3641;stroke-linecap:round;stroke-linejoin:round;stroke-miterlimit:10;}
	.st30{fill:#D55165;stroke:#32363B;stroke-width:0.3641;stroke-linecap:round;stroke-linejoin:round;stroke-miterlimit:10;}
	.st31{fill:#66A2D8;stroke:#32363B;stroke-width:0.3641;stroke-linecap:round;stroke-linejoin:round;stroke-miterlimit:10;}
	.st32{fill:#33608D;stroke:#32363B;stroke-width:0.3641;stroke-linecap:round;stroke-linejoin:round;stroke-miterlimit:10;}
	.st33{fill:#467FC1;stroke:#32363B;stroke-width:0.3641;stroke-linecap:round;stroke-linejoin:round;stroke-miterlimit:10;}
	.st34{fill:#32363B;}
	.st35{fill:url(#SVGID_4_);}
	.st36{fill:url(#SVGID_5_);}
	.st37{fill:#3A3E44;}
	.st38{font-family:'SourceSansPro-Bold';}
	.st39{font-size:11.2425px;}
	.st40{fill:#467FC1;}
	.st41{fill:#00B04F;}
	.st42{fill:#677F8F;}
</style>
<g>
	<path class="st0" d="M155.5,74c0.2-9.2,0.4-15.6,0.5-20.1C155.9,59.9,155.4,67.8,155.5,74z"/>
	<path class="st0" d="M157.1,37.3c0.3-0.8,0.4-1.5,0.5-2C157.5,35.8,157.4,36.5,157.1,37.3z"/>
	<path class="st0" d="M153.2,40.7c0.2-0.1,0.5-0.2,0.7-0.3C153.7,40.5,153.4,40.6,153.2,40.7z"/>
	<path class="st0" d="M156.2,38.7c0.4-0.5,0.7-1,0.9-1.4C156.9,37.8,156.6,38.3,156.2,38.7z"/>
	<path class="st0" d="M155.2,44.9c0,0-0.1-0.1-0.3-0.3C155.1,44.7,155.2,44.9,155.2,44.9c0.5,0.1,0.7,1.4,0.8,3.5
		C155.9,45.9,155.7,45,155.2,44.9z"/>
	<path class="st0" d="M178.6,26.5c-2.2-2-4.3-4.6-6.3-8c-0.1,0.6-0.3,1.2-0.4,1.8c0.1-0.6,0.3-1.2,0.4-1.8
		C174.2,22,176.4,24.6,178.6,26.5z"/>
	<path class="st0" d="M153.2,41.1L153.2,41.1c0,0.1,0,0.2,0,0.2C153.3,41.2,153.3,41.2,153.2,41.1L153.2,41.1z"/>
	<path class="st0" d="M178.6,26.5c0.8,0.7,1.5,1.3,2.3,1.8C180.1,27.8,179.3,27.2,178.6,26.5z"/>
	<path class="st0" d="M181.7,28.9c1.1,0.7,2.3,1.3,3.4,1.8C184,30.2,182.8,29.6,181.7,28.9z"/>
	<path class="st0" d="M178.3,67.5C178.3,67.5,178.3,67.5,178.3,67.5C178.3,67.5,178.3,67.5,178.3,67.5z"/>
	<path class="st0" d="M178.2,67.5L178.2,67.5L178.2,67.5z"/>
	<path class="st1" d="M158.6,45.5C158.6,45.5,158.6,45.4,158.6,45.5L158.6,45.5z"/>
	<path class="st1" d="M175.9,67c0.1,0,0.1,0,0.2,0.1C176,67,175.9,67,175.9,67z"/>
	<path class="st1" d="M178.2,67.5c0,0-0.1,0-0.2,0C178.1,67.5,178.2,67.5,178.2,67.5z"/>
	<path class="st1" d="M177.2,67.4c0,0,0.1,0,0.1,0C177.3,67.4,177.3,67.4,177.2,67.4z"/>
	<path class="st2" d="M192.2,32.3c-1.8-0.1-3.9-0.5-6.1-1.3c-0.3-0.1-0.6-0.2-1-0.4c-1.1-0.5-2.3-1.1-3.4-1.8
		c-0.3-0.2-0.6-0.4-0.8-0.6c-0.8-0.5-1.5-1.1-2.3-1.8c-2.2-2-4.3-4.6-6.3-8c-0.1,0.6-0.3,1.2-0.4,1.8c-0.3,1.5-0.7,3.1-1.2,4.6
		c-0.2,0.4-0.3,0.9-0.5,1.3c-0.2,0.4-0.4,0.9-0.6,1.3c-0.3,0.6-0.7,1.2-1.1,1.8c-0.5,0.8-1.2,1.5-1.9,2.2c-0.2,0.2-0.4,0.3-0.6,0.5
		c-0.6,0.5-1.3,0.9-2,1.2c-0.2,0.1-0.5,0.2-0.8,0.3c-0.8,0.3-1.6,0.6-2.6,0.8c-0.9,0.2-2,0.3-3.1,0.3c0,0,0,0.2,0,0.6
		c0,0.1,0,0.3,0,0.4c0,0.3-0.1,0.6-0.2,1c-0.1,0.2-0.1,0.4-0.2,0.6c-0.2,0.5-0.5,1-0.9,1.4c-0.5,0.6-1.3,1.2-2.3,1.7
		c-0.2,0.1-0.5,0.2-0.7,0.3c0,0.1,0,0.4,0,0.4c0,0.1,0,0.1,0,0.2c0,0,0,0,0,0.1c0.2,1.1,0.9,2.2,1.4,2.9c0.1,0.1,0.2,0.2,0.3,0.3
		c0.2,0.2,0.3,0.3,0.3,0.3c0.5,0.1,0.7,1.1,0.8,3.5c0.1,1.5,0.1,3.4,0,5.5c-0.1,4.5-0.4,23.5-0.4,23.9c2.8,13.3,19.4,7.8,19.5,1.2
		c0,0,0-2.5,0-2.6c0-0.9,0-2.1,0-3.3c-3.9-3.6-13.1,0.9-13.5-17.1c-0.1-4.8-2.6-9.9-3-10.6c0.6,1.1,9.1,17.5,13.4,19.8
		c1.4,0.7,2.4,1.2,3.3,1.5c0.2,0.1,0.3,0.1,0.5,0.2c0.1,0,0.1,0,0.2,0.1c0.2,0.1,0.4,0.1,0.6,0.2c0,0,0.1,0,0.1,0
		c0.2,0.1,0.4,0.1,0.5,0.1c0,0,0.1,0,0.1,0c0.1,0,0.3,0.1,0.4,0.1l0.2,0c0,0,0.1,0,0.1,0c0,0,0.1,0,0.1,0c0,0,0.1,0,0.1,0
		c0,0,0.1,0,0.1,0c0,0,0,0,0,0c0.2,0,0.4,0,0.6,0.1c0.2,0,0.5,0.1,0.7,0.1c0.4,0.1,1.4,0.2,1.5,0.3c0.3,0,0.5,0.1,0.8,0.1
		s0.5,0,0.8,0.1c0.4,0,0.8,0,1.2,0c0.3,0,0.5-0.1,0.8-0.2c0.4-0.1,0.8-0.3,1.2-0.5c0.4-0.2,0.7-0.5,1.1-0.8c0.2-0.2,0.5-0.5,0.7-0.8
		c0.8-1,1.4-2.4,1.9-4.4c0.9-4,1.1-18.9,1-19.7c-0.1-0.9,3.4-0.1,3.4-0.1C194,38.6,192.7,34.7,192.2,32.3z"/>
	<path class="st3" d="M156,48.4c-0.1-2.1-0.3-3.4-0.8-3.5c0,0-0.1-0.1-0.3-0.3c-0.1-0.1-0.2-0.2-0.3-0.3c-0.5-0.6-1.2-1.7-1.4-2.9
		c0,0,0,0,0-0.1c0-0.1,0-0.1,0-0.2c0,0,0-0.2,0-0.4c0.2-0.1,0.5-0.2,0.7-0.3c1-0.5,1.8-1.1,2.3-1.7c0.4-0.5,0.7-1,0.9-1.4
		c0.1-0.2,0.2-0.4,0.2-0.6c0.1-0.4,0.2-0.7,0.2-1c0-0.1,0-0.3,0-0.4c0-0.4,0-0.6,0-0.6c1.1,0,2.1-0.1,3.1-0.3
		c0.9-0.2,1.8-0.4,2.6-0.8c0.3-0.1,0.5-0.2,0.8-0.3c0.7-0.4,1.4-0.8,2-1.2c0.2-0.2,0.4-0.3,0.6-0.5c0.7-0.7,1.4-1.4,1.9-2.2
		c0.4-0.6,0.8-1.2,1.1-1.8c0.2-0.4,0.4-0.9,0.6-1.3c0.2-0.4,0.3-0.9,0.5-1.3c0.5-1.6,0.9-3.1,1.2-4.6c0.1-0.6,0.3-1.2,0.4-1.8
		c2,3.4,4.2,6,6.3,8c0.8,0.7,1.5,1.3,2.3,1.8c0.3,0.2,0.6,0.4,0.8,0.6c1.1,0.7,2.3,1.3,3.4,1.8c0.3,0.1,0.6,0.3,1,0.4
		c2.2,0.8,4.3,1.1,6.1,1.3c0.5,2.4,1.8,6.3,1.8,9.3c0,0-3.5-0.8-3.4,0.1c0.1,0.8-0.1,15.7-1,19.7c-0.5,2-1.1,3.4-1.9,4.4
		c-0.2,0.3-0.4,0.5-0.7,0.8c-0.3,0.3-0.7,0.6-1.1,0.8c-0.4,0.2-0.8,0.4-1.2,0.5c-0.3,0.1-0.5,0.1-0.8,0.2c-0.4,0-0.8,0.1-1.2,0
		c-0.3,0-0.5,0-0.8-0.1s-0.5-0.1-0.8-0.1c-0.1,0-2-0.3-2.2-0.4c-0.2,0-0.4-0.1-0.6-0.1c0,0,0,0,0,0c0,0-0.1,0-0.1,0c0,0-0.1,0-0.1,0
		c0,0-0.1,0-0.1,0c0,0-0.1,0-0.1,0l-0.2,0c-0.1,0-0.2,0-0.4-0.1c0,0-0.1,0-0.1,0c-0.1,0-0.3-0.1-0.5-0.1l-0.1,0
		c-0.2-0.1-0.4-0.1-0.6-0.2c-0.1,0-0.7-0.2-0.7-0.2c0,0.5-0.2,2.9-0.2,3.2c0,0.1-0.1,3-0.1,3.3c0,1.2,0,2.4,0,3.3
		c0.4,0,0.9,0,1.3,0.1c0.8-0.3,1.5-0.5,1.9-0.7c2.5-1.2,4.2-1.5,6.9-1.5c2.4-0.1,4.6-0.5,6.6-1.9c4.6-3.3,4.7-8,3.7-13
		c-0.3-1.4-0.5-2.7-0.2-4.2c0.2-0.9,0.9-1.7,1.2-2.7c0.3-1.1,0.4-2.2,0.3-3.3c-0.2-1.5-1-2.6-1.4-4c-0.3-1.4,0.1-1.9,0.3-3.1
		c0.8-3.5,2.2-7.2,0-9.8c0.9,0,1.6-0.1,2.2-0.1c5.3-0.2,8.7-1.8,8.7-1.8l-6.4-2.2c0,0,4,1.3,6.3,0.5c-9.7-4.3-34.4-43.8-44.3-22.4
		c-7-2.1-10.5,1.3-9.9,5.6C129.2,7.4,139,31,139,31.3c0,0-4.8,4.5-3.3,12.8c0.8,4.1,4.3,15.5,13.1,15.5c0.4,0.6-11.1,15.7,6.7,14.4
		c0,0,0,0,0,0C155.6,67.8,156,49.8,156,48.4z"/>
	<path class="st3" d="M175.1,77c0.4-0.1,0.9-0.3,1.3-0.4c-0.5,0-0.9-0.1-1.3-0.1C175.1,76.7,175.1,76.8,175.1,77z"/>
	<path class="st3" d="M177.4,67.4c0,0-0.1,0-0.1,0C177.3,67.4,177.3,67.4,177.4,67.4z"/>
	<path class="st3" d="M163.2,33.6c-0.8,0.3-1.6,0.6-2.6,0.8C161.6,34.2,162.4,33.9,163.2,33.6z"/>
	<path class="st3" d="M176.7,67.2C176.7,67.2,176.7,67.2,176.7,67.2C176.7,67.2,176.7,67.2,176.7,67.2z"/>
	<path class="st3" d="M177.7,67.5c0,0,0.1,0,0.1,0C177.8,67.5,177.8,67.5,177.7,67.5z"/>
	<path class="st3" d="M178.1,67.5C178.1,67.5,178.1,67.5,178.1,67.5c-0.1,0-0.1,0-0.2,0C178,67.5,178,67.5,178.1,67.5
		C178.1,67.5,178.1,67.5,178.1,67.5z"/>
	<path class="st4" d="M175.1,72.5c0-0.3,0.2-4.1,0.2-4.1c0-0.5,0.1-1.6,0.1-1.6c-0.9-0.3-2-0.8-3.3-1.5
		c-4.3-2.3-12.8-18.7-13.4-19.8c0.3,0.6,2.9,5.8,3,10.6c0.4,18.1,9.6,13.5,13.5,17.1L175.1,72.5z"/>
	<path class="st4" d="M175.1,73.2c0-0.2,0-0.5,0-0.7C175.1,72.7,175.1,73,175.1,73.2z"/>
	<path class="st4" d="M175.1,71.6l0-1.2C175.1,70.7,175.1,71.2,175.1,71.6z"/>
	<path class="st4" d="M175.2,68.3c0-0.5,0.1-1,0.1-1.6C175.3,67.3,175.3,67.8,175.2,68.3z"/>
	<path class="st4" d="M175.2,69.9c0-0.3,0-0.6,0-0.8C175.2,69.4,175.2,69.7,175.2,69.9z"/>
	<path class="st1" d="M177.7,67.5c0.1,0,0.1,0,0.2,0C177.9,67.5,177.8,67.5,177.7,67.5z"/>
	<polygon class="st5" points="253.3,402.8 255.6,402.8 222.9,270.8 208.5,266.4 	"/>
	<path class="st5" d="M77,402.8h2.3l45.2-137.6c-4.1-2-8-4.3-11.7-6.9L77,402.8z"/>
	<path class="st6" d="M110.3,237.1c-0.5-0.2-1.3-0.6-2.1-1C108.9,236.5,109.6,236.8,110.3,237.1z"/>
	<path class="st6" d="M105,234.7c0.2,0.1,0.4,0.2,0.6,0.2C105.4,234.8,105.2,234.7,105,234.7z"/>
	<path class="st6" d="M101.8,232.7c-0.6-0.5-1.2-1.1-1.7-1.8C100.6,231.6,101.2,232.2,101.8,232.7z"/>
	<path class="st6" d="M102.7,233.5c0.6,0.4,1.3,0.8,2,1.1C104,234.3,103.4,233.9,102.7,233.5z"/>
	<path class="st6" d="M76.7,169.8c-0.7-0.4-1.4-0.9-2.1-1.3c-0.2,0.5-0.5,1-0.7,1.5h2.5C76.6,169.9,76.6,169.8,76.7,169.8z"/>
	<path class="st6" d="M111.6,196.5c1.7-0.2,3.5-0.2,5.3,0.1C115.1,196.2,113.3,196.2,111.6,196.5z"/>
	<path class="st6" d="M226.1,238.6l11.1,4.3c14-15.9,22.9-36.7,23.6-59.9h-4.4C253.1,205.3,242.1,224.7,226.1,238.6z"/>
	<path class="st6" d="M96.1,217c0-0.1,0-0.3,0-0.4C96.1,216.7,96.1,216.9,96.1,217z"/>
	<path class="st6" d="M99.5,230.1c-2-2.9-3-6.7-3.4-10.7c0,0.2,0,0.4,0,0.6C96.6,223.7,97.7,227.3,99.5,230.1z"/>
	<path class="st6" d="M102.2,200.9c-1.3,1.2-2.5,2.6-3.4,4.2C99.7,203.5,100.9,202.1,102.2,200.9z"/>
	<path class="st6" d="M102,232.9c0.2,0.1,0.4,0.3,0.5,0.4C102.3,233.2,102.2,233,102,232.9z"/>
	<path class="st6" d="M111.6,196.5c-3.5,0.5-6.8,2-9.4,4.4C104.8,198.5,108.1,196.9,111.6,196.5z"/>
	<path class="st6" d="M208.5,151.9c17,3,29.8,7.5,38.2,11.8h8.6c-2.7-3.8-6.3-7.2-10.6-10.3h-22c-4.2,0-7.6-3.4-7.6-7.6v-5.4
		c-2.1-0.6-4.3-1.1-6.5-1.6V151.9z"/>
	<path class="st6" d="M97,209.6c0,0.1,0,0.1,0,0.2C97,209.7,97,209.7,97,209.6z"/>
	<polygon class="st6" points="206.5,265.9 206.7,265.8 206.5,265.8 	"/>
	<path class="st6" d="M96.1,215.2L96.1,215.2L96.1,215.2z"/>
	<path class="st6" d="M99.6,230.2c0.2,0.2,0.3,0.4,0.5,0.7C99.9,230.7,99.8,230.5,99.6,230.2z"/>
	<path class="st6" d="M96.1,218.2c0,0.2,0,0.5,0,0.7C96.1,218.7,96.1,218.4,96.1,218.2z"/>
	<path class="st6" d="M170.5,260.7c-1.4,0.1-2.8,0.1-4.2,0.1c-13.9,0-27.1-3.1-38.8-8.5c-2.5-1.2-4.9-2.4-7.3-3.8
		c-23.3-13.6-39.8-37.3-44-65.4h-4.4c1,31.7,17.1,58.9,41,75.3c3.7,2.6,7.7,4.9,11.7,6.9c12.6,6.2,26.8,9.7,41.7,9.7
		c1.7,0,3.3,0,4.9-0.1L170.5,260.7z"/>
	<path class="st7" d="M168.3,254.2l-40.8-1.9c11.7,5.5,24.9,8.5,38.8,8.5c1.4,0,2.8,0,4.2-0.1l-0.3-6L168.3,254.2z"/>
	<path class="st7" d="M208.5,210.3c-0.4,5.7-0.5,9.7-0.7,12.9c-0.1,3.2-0.2,5.7-0.2,8.3l18.5,7.1c16-13.9,27-33.3,30.3-55.6h-48
		V210.3z"/>
	<path class="st7" d="M137.3,204.3l-0.9-0.3L137.3,204.3z"/>
	<path class="st7" d="M209.1,170h2.9l6.1-6.3h28.5c-8.3-4.2-21.1-8.8-38.2-11.8v17.3L209.1,170z"/>
	<path class="st7" d="M133.9,202.9C133.9,202.9,133.9,202.9,133.9,202.9C133.9,202.9,133.9,202.9,133.9,202.9z"/>
	<path class="st7" d="M76.7,169.8c-0.1,0.1-0.1,0.1-0.2,0.2H77C76.9,169.9,76.8,169.8,76.7,169.8z"/>
	<path class="st7" d="M142.5,206.3l-2.2-0.9L142.5,206.3z"/>
	<path class="st7" d="M121.2,183h-45c4.2,28.2,20.7,51.8,44,65.4l-9.4-11.1c-0.1-0.1-0.3-0.1-0.5-0.2c-0.8-0.3-1.5-0.7-2.1-1
		c-0.8-0.4-1.7-0.8-2.5-1.2c-0.1,0-0.1,0-0.2-0.1c-0.2-0.1-0.4-0.1-0.6-0.2c-0.1,0-0.2-0.1-0.3-0.1c-0.7-0.3-1.4-0.7-2-1.1
		c-0.1-0.1-0.1-0.1-0.2-0.2c-0.2-0.1-0.4-0.3-0.5-0.4c-0.1-0.1-0.1-0.1-0.2-0.2c-0.6-0.5-1.2-1.1-1.7-1.8c0,0,0-0.1-0.1-0.1
		c-0.2-0.2-0.3-0.4-0.5-0.7c0,0-0.1-0.1-0.1-0.1c-1.9-2.8-3-6.4-3.3-10.1c0-0.2,0-0.4,0-0.6c0-0.2-0.1-1-0.1-1.3c0-0.4,0-0.8,0-1.2
		c0-0.1,0-0.3,0-0.4c0-0.4,0-0.9,0-1.3c0.1-1.9,0.4-3.7,0.8-5.4c0-0.1,0-0.1,0-0.2c0.1-0.4,0.2-0.8,0.3-1.2c0.2-0.6,0.4-1.2,0.7-1.8
		c0.3-0.6,0.5-1.1,0.8-1.6c0.9-1.6,2.1-3,3.4-4.2c2.6-2.4,5.9-3.9,9.4-4.4c1.7-0.2,3.5-0.2,5.3,0.1c1.2,0.2,2.4,0.5,3.5,1l0.7,0.3
		V183z"/>
	<path class="st3" d="M277.4,285.8l6,34.3l5.3,1l11.2-56.5l-24.7-4.9l-2.6,18.8C275.1,280.1,276.9,282.7,277.4,285.8z"/>
	<g>
		<path class="st8" d="M108.2,236.1c0.8,0.4,2.4,1.1,2.6,1.2l9.4,11.1c2.4,1.4,4.8,2.7,7.3,3.8l40.8,1.9
			c-24.7-7.5-46.8-14.2-56.6-17.3c-3.3-1-5.2-1.6-5.3-1.7C106.9,235.5,107.5,235.8,108.2,236.1z"/>
	</g>
	<g>
		<path class="st8" d="M168.3,254.2l-9.8-0.5L168.3,254.2z"/>
	</g>
	<g>
		<path class="st8" d="M108.2,236.1c-0.7-0.3-1.3-0.7-1.9-1c-0.2-0.1-0.4-0.1-0.6-0.2C106.5,235.3,107.4,235.7,108.2,236.1z"/>
	</g>
	<g>
		<path class="st8" d="M110.3,237.1c0.2,0.1,0.4,0.2,0.5,0.2l3.1,3.7l-3.1-3.7C110.7,237.3,110.5,237.2,110.3,237.1z"/>
	</g>
	<polygon class="st9" points="287.7,163.7 282.7,153.4 256.3,153.4 269.3,163.7 	"/>
	<polygon class="st10" points="218.2,163.7 212,170 296.9,170 296.9,163.7 	"/>
	<rect x="296.9" y="121.2" class="st6" width="36.8" height="48.8"/>
	<path class="st9" d="M189,127.5c-1.2,0-2,0.7-2.3,2h4.5C191,128.2,190.3,127.5,189,127.5z"/>
	<path class="st9" d="M194,79.4c-6.4-1.7-12.6-2.5-17.6-2.8c-0.4,0.1-0.9,0.3-1.3,0.4c0,1.3,0,2.1,0,2.1
		c-0.1,6.6-16.7,12.1-19.5-1.2c0-0.4,0-0.8-0.1-1.2h-32.5c-15,6.4-52.5,74.9-52.5,74.9c-3.2,7-1.6,12.8,4.1,16.9
		c0.6,0.5,1.3,0.9,2.1,1.3c0.1,0.1,0.2,0.1,0.3,0.2h5.7c-1.5-0.4-2.9-1-4.2-1.7c-1-0.6-1.9-1.2-2.8-1.9c-2.7-2.4-4.3-5.5-4-8.8
		c0.8-8.5,10.3-10.2,23.9-8.8c7.2,0.7,15.5,2.2,24.4,4c25,5,54.1,11.8,73.2,9.1c1.9-0.3,8.3-0.2,9.8,1.1l5.3,6.3v-53.8l6.5,5.2V89.7
		C206.1,84.6,198.3,80.6,194,79.4z M112.7,141.8c-1.7,3.6-2.7,6.6-2.4,9l-4.7-1.4l21.7-34C122.7,124.7,116.2,134.3,112.7,141.8z
		 M147,135.2c-0.2,0.1-0.4,0.1-0.7,0.1c-0.1,0-0.2,0-0.3,0c-0.8-0.1-1.2-0.8-1.2-2v-10.6l2.1-0.5v10.2c0,1.1,0.4,1.8,1,2
		C147.8,134.8,147.5,135,147,135.2z M150.2,135.1v-7.3h-1.2V126h3.3v9.1H150.2z M152.2,124.6c-0.2,0.2-0.5,0.4-0.9,0.4
		c-0.3,0-0.6-0.1-0.9-0.4c-0.2-0.2-0.4-0.5-0.4-0.9c0-0.3,0.1-0.6,0.4-0.9c0.2-0.2,0.5-0.4,0.9-0.4c0.3,0,0.6,0.1,0.9,0.4
		c0.2,0.2,0.4,0.5,0.4,0.9S152.4,124.3,152.2,124.6z M184.4,135.1v2.4l-15.3,8.9l-15.3-8.9v-17.7l15.3-8.9l15.3,8.9V135.1z
		 M193.2,131.1h-6.5c0,0.7,0.3,1.3,0.8,1.7s1.1,0.6,1.9,0.6c1,0,1.7-0.3,2.2-0.8l0.8,1.6c-0.7,0.6-1.9,0.9-3.3,0.9
		c-1.4,0-2.5-0.4-3.3-1.2c-0.8-0.8-1.2-1.9-1.2-3.4c0-1.4,0.4-2.6,1.3-3.5c0.9-0.9,1.9-1.3,3.2-1.3c1.3,0,2.4,0.4,3.2,1.2
		c0.8,0.8,1.2,1.8,1.2,3C193.3,130.2,193.3,130.6,193.2,131.1z"/>
	<path class="st10" d="M407.1,29.1H222.6c-4.2,0-7.6,3.4-7.6,7.6v109c0,4.2,3.4,7.6,7.6,7.6h74.3v-32.2h36.8v32.2h73.4
		c4.2,0,7.6-3.4,7.6-7.6v-109C414.7,32.6,411.3,29.1,407.1,29.1z"/>
	<g>
		<path class="st9" d="M278.3,38.8c-6.2-1.6-13.8-1.4-21.4,0.5c-7.6,1.9-14.4,5.3-19.2,9.6c-4.9,4.5-7,9.5-5.9,14s5.3,7.9,11.8,9.6
			c6.2,1.6,13.8,1.4,21.4-0.5c7.6-1.9,14.4-5.3,19.2-9.6c4.9-4.5,7-9.5,5.9-14C288.9,43.9,284.7,40.5,278.3,38.8z"/>
		<g>
			<path class="st11" d="M262.7,65.1c0-0.1,0-0.1,0-0.2c0,0,0,0-0.1,0c0,0-0.1,0-0.1,0.1c-0.1,0.1-0.1,0.1-0.2,0.2
				c0,0.1-0.1,0.2-0.1,0.2c0,0.1,0,0.2,0,0.3c0.1-0.1,0.2-0.2,0.3-0.3C262.6,65.3,262.7,65.2,262.7,65.1z"/>
			<path class="st11" d="M268.2,62.5c0,0-0.1,0-0.1,0c0,0-0.1,0-0.1,0.1c0,0-0.1,0.1-0.2,0.2l0-0.2c-0.1,0.1-0.1,0.1-0.2,0.2
				c-0.1,0.1-0.1,0.1-0.2,0.2c-0.1,0.1-0.1,0.2-0.2,0.4c-0.1,0.2-0.2,0.5-0.2,0.7c0,0.2,0,0.4,0,0.5c0,0.2,0.1,0.3,0.3,0.2
				c0.1,0,0.2-0.1,0.3-0.2c0.1-0.1,0.2-0.3,0.4-0.4c0.1-0.2,0.2-0.4,0.3-0.6c0.1-0.2,0.1-0.4,0.1-0.6c0-0.2,0-0.3,0-0.4
				C268.2,62.6,268.2,62.6,268.2,62.5z"/>
			<polygon class="st11" points="264.8,58 267.4,57.4 265.2,53.8 			"/>
			<path class="st11" d="M257.6,42.4c-14.5,3.6-24.7,12.5-22.9,19.9s15.1,10.4,29.5,6.8c14.5-3.6,24.7-12.5,22.9-19.9
				C285.3,41.8,272.1,38.8,257.6,42.4z M250.4,65.6l-2.6,0.7L239.9,54l3-0.7l5.4,9.4l0.4-10.8l29.8-7.4l-0.2,2.6l-26.9,6.7
				L250.4,65.6z M252.2,54.6l2.1-0.5l2,8.1l4.9-1.2l0.4,1.8l-7,1.7L252.2,54.6z M264.5,62.1l-2.2,0.5l1.1-10.8l2.3-0.6l6,9l-2.2,0.6
				l-1.2-1.9l-3.6,0.9L264.5,62.1z M278.9,58.5l-5.8-6l1.7,7L273,60l-2.5-9.9l2.2-0.5l5.6,5.9l-1.7-6.9l1.9-0.5L281,58L278.9,58.5z"
				/>
			<path class="st11" d="M288.7,48.8c-2.1-8.3-16.2-11.9-31.5-8.1c-15.4,3.8-26.1,13.6-24.1,21.9s16.2,11.9,31.5,8.1
				C280,66.9,290.8,57.1,288.7,48.8z M264.3,69.5c-14.7,3.7-28.2,0.5-30.1-7.1c-1.9-7.6,8.5-16.7,23.2-20.4
				c14.7-3.7,28.2-0.5,30.1,7.1C289.4,56.7,279,65.8,264.3,69.5z"/>
		</g>
	</g>
	<g>
		<g>
			<g>
				<path class="st9" d="M369.1,139.5c-1.4-0.5-2.6-1.4-3.4-2.6c-2.4-3.4-4.4-9.5-5.4-16.4c-0.6-4.3-1.4-12.4,0.8-18.4
					c1.3-3.5,4.2-6.1,7.8-7.1c7.2-1.9,14.7,0.6,16.1,1.2l0.3,0.1c1.4,0.5,8.8,3.5,13,9.6c2.1,3.1,2.6,7,1.3,10.4
					c-2.2,6-8.1,11.7-11.4,14.5c-5.2,4.5-10.7,7.8-14.7,8.9C371.9,140.1,370.4,140,369.1,139.5z"/>
				<path class="st12" d="M384.1,99.1c0,0,7.6,2.6,11.6,8.5c1.5,2.2,1.9,5.1,0.9,7.7c-3.2,8.6-16.8,19.6-24,21.5
					c-0.8,0.2-1.7,0.2-2.5-0.1c-0.8-0.3-1.5-0.8-2-1.5c-4.2-6.1-7.3-23.4-4.2-32c0.9-2.6,3.1-4.5,5.7-5.2
					C376.6,96.1,384.1,99.1,384.1,99.1z"/>
			</g>
			<defs>
				<filter id="Adobe_OpacityMaskFilter" filterUnits="userSpaceOnUse" x="364.5" y="98.2" width="32" height="20.9">
					<feFlood  style="flood-color:white;flood-opacity:1" result="back"/>
					<feBlend  in="SourceGraphic" in2="back" mode="normal"/>
				</filter>
			</defs>
			<mask maskUnits="userSpaceOnUse" x="364.5" y="98.2" width="32" height="20.9" id="SVGID_1_">
				<g class="st13">
					<defs>
						<filter id="Adobe_OpacityMaskFilter_1_" filterUnits="userSpaceOnUse" x="364.5" y="98.2" width="32" height="20.9">
							<feFlood  style="flood-color:white;flood-opacity:1" result="back"/>
							<feBlend  in="SourceGraphic" in2="back" mode="normal"/>
						</filter>
					</defs>
					<mask maskUnits="userSpaceOnUse" x="364.5" y="98.2" width="32" height="20.9" id="SVGID_1_">
						<g class="st14">
						</g>
					</mask>
					
						<linearGradient id="SVGID_2_" gradientUnits="userSpaceOnUse" x1="334.8548" y1="-4.03" x2="334.8548" y2="-27.0233" gradientTransform="matrix(1.0064 0.3548 -0.2721 0.7718 39.2627 1.8282)">
						<stop  offset="0.1963" style="stop-color:#000000"/>
						<stop  offset="0.3645" style="stop-color:#030303"/>
						<stop  offset="0.473" style="stop-color:#0B0B0B"/>
						<stop  offset="0.5647" style="stop-color:#1A1A1A"/>
						<stop  offset="0.6471" style="stop-color:#2F2F2F"/>
						<stop  offset="0.7232" style="stop-color:#4A4A4A"/>
						<stop  offset="0.7948" style="stop-color:#6C6C6C"/>
						<stop  offset="0.8627" style="stop-color:#949494"/>
						<stop  offset="0.9278" style="stop-color:#C2C2C2"/>
						<stop  offset="0.9884" style="stop-color:#F4F4F4"/>
						<stop  offset="1" style="stop-color:#FFFFFF"/>
					</linearGradient>
					<path class="st15" d="M396.2,114.2c-1.7,4.9-10.2,6.4-18.8,3.3c-8.7-3.1-14.3-9.5-12.6-14.4c1.7-4.9,10.2-6.4,18.8-3.3
						C392.3,102.8,397.9,109.3,396.2,114.2z"/>
				</g>
			</mask>
			
				<linearGradient id="SVGID_3_" gradientUnits="userSpaceOnUse" x1="334.8548" y1="-4.03" x2="334.8548" y2="-27.0233" gradientTransform="matrix(1.0064 0.3548 -0.2721 0.7718 39.2627 1.8282)">
				<stop  offset="0" style="stop-color:#FFFFFF;stop-opacity:0"/>
				<stop  offset="1" style="stop-color:#FFFFFF"/>
			</linearGradient>
			<path class="st16" d="M396.2,114.2c-1.7,4.9-10.2,6.4-18.8,3.3c-8.7-3.1-14.3-9.5-12.6-14.4c1.7-4.9,10.2-6.4,18.8-3.3
				C392.3,102.8,397.9,109.3,396.2,114.2z"/>
		</g>
		<g>
			<g>
				<path class="st17" d="M373.8,108.1l-1.7,0.9l0.5,2.3l-4.3,2.6l-1.2-3l0.5-0.3l2-5.5l-0.4-1.1l1.9,0.7l0.2,0.6l1-0.5L373.8,108.1
					z M370.3,108.2l1.2-0.6l-0.5-1.2L370.3,108.2z M369.2,111.2l1.4-0.8l-0.4-1.9L369.2,111.2z"/>
				<polygon class="st17" points="379.4,110.4 376.9,117 376,114.6 376.6,112.9 376,112.6 375.7,111.9 374.1,116 373,113 
					373.5,112.7 374.9,108.9 374.7,108.3 376.2,108.8 376.5,109.7 376.1,110.7 377.3,111.2 377.4,110.7 375.8,106.3 378.1,107.2 
									"/>
				<path class="st17" d="M385.7,112.5l-1.7,0.9l0.2,1.3l0.5-0.1l-1.7,4.7l-0.8-6.4l-2,5.4l-1.2-3l0.5-0.3l2-5.5l-0.4-1.1l1.9,0.7
					l0.2,0.6l1-0.5L385.7,112.5z M382.2,112.6l1.2-0.6l-0.5-1.2L382.2,112.6z"/>
				<polygon class="st17" points="391.5,114.1 389.5,113.4 390,114.5 387.7,115.7 386.9,118 390.1,116.3 389.2,118.7 386,120.4 
					384.8,117.4 385.4,117.1 386.5,114.2 388.1,113.3 387,110.5 390.6,111.8 				"/>
			</g>
			<g>
				<polygon class="st17" points="370.2,121.8 369.6,120.4 370.6,117.7 369.8,118.2 369.4,117.3 368.1,121.1 367.4,119.3 
					367.7,119.1 368.9,115.8 368.6,115.2 369.8,115.6 370.3,116.8 371.4,116.2 372.1,116.5 				"/>
				<polygon class="st17" points="375.4,118.8 374.2,118.4 374.5,119.1 373.2,119.8 372.7,121.1 374.6,120.1 374,121.5 372.1,122.6 
					371.4,120.8 371.8,120.6 372.4,118.9 373.4,118.3 372.7,116.7 374.9,117.5 				"/>
				<polygon class="st17" points="378.9,120.2 377.3,119.6 377.5,120.2 376.1,124 375.4,122.2 375.7,122.1 376.7,119.4 376.3,119.2 
					375.7,117.8 378.4,118.8 				"/>
				<polygon class="st17" points="382.1,121.8 380.6,125.7 380.1,124.3 380.4,123.2 380,123.1 379.9,122.6 378.9,125.1 378.3,123.3 
					378.6,123.1 379.4,120.9 379.3,120.5 380.2,120.9 380.3,121.3 380.1,122 380.8,122.2 380.9,122 379.9,119.4 381.3,119.9 				"/>
				<polygon class="st17" points="384.4,121.3 383,125 384.1,124.5 383.5,125.9 382.5,126.4 381.8,124.6 382.1,124.4 383.4,121.2 
					383.1,120.5 384.3,121 				"/>
			</g>
			<g>
				<polygon class="st9" points="376.9,100.6 375.8,103.3 376.6,102.9 376.2,104 375.4,104.4 374.9,103.1 375.2,102.9 376.1,100.4 
					375.9,99.9 376.8,100.3 				"/>
				<polygon class="st9" points="378.8,101.2 377.3,105.1 376.8,103.8 377,103.6 378,101.1 377.8,100.6 378.6,101 				"/>
				<polygon class="st9" points="381.4,102.6 380.1,106.2 379.7,105.1 380.2,103.7 379.9,102.9 378.8,105.7 378.3,104.3 
					378.6,104.2 379.5,101.7 379.3,101.2 380.2,101.5 380.6,102.6 381,101.5 				"/>
				<path class="st9" d="M384,104.2l-0.8,2.2l-1,0.6l-0.8-2.2l0.3-0.1l0.5-1.3l-0.1-0.3l1.3-0.7L384,104.2z M382.2,105l0.3,0.8
					l0.6-1.6l-0.3-0.8L382.2,105z"/>
				<path class="st9" d="M386.7,104.7l-0.8,2.1l-1.7,0.9l-0.5-1.4l0.2-0.1l0.8-2l0.4,0.1l-0.4-1.1l1.6,0.6L386.7,104.7z
					 M385.5,104.4l-0.8,2.2l0.6-0.3l0.6-1.7L385.5,104.4z"/>
				<polygon class="st9" points="389.4,105.8 388.5,105.5 388.7,106 387.7,106.6 387.3,107.6 388.8,106.8 388.4,107.9 386.9,108.7 
					386.4,107.3 386.6,107.2 387.1,105.9 387.8,105.5 387.4,104.2 389,104.8 				"/>
			</g>
		</g>
		<polygon class="st17" points="374.3,125.3 374.3,127.2 376.1,127.8 374.2,128.4 374.1,130.3 373.1,128.7 371.2,129.2 372.4,127.7 
			371.3,126.1 373.1,126.8 		"/>
		<g>
			<polygon class="st9" points="367.7,129 368.7,128.3 370,132.1 369.5,126 368.6,126.6 367.4,122.6 			"/>
			<polygon class="st9" points="376.9,132.4 376.6,131.3 373.1,133.3 377.5,129 377.8,130 381.3,127.8 			"/>
		</g>
	</g>
	<g>
		<path class="st9" d="M256.1,134.6c-0.7,0.1-1.5,0.1-2.2-0.1l-16.4-5.5c-1.5-0.5-2.6-1.7-2.9-3.2l-3.4-16.9
			c-0.3-1.5,0.2-3.1,1.4-4.1l13-11.4c1.2-1,2.8-1.3,4.2-0.9l16.4,5.5c1.5,0.5,2.6,1.7,2.9,3.2l3.4,16.9c0.3,1.5-0.2,3.1-1.4,4.1
			l-13,11.4C257.5,134.1,256.8,134.5,256.1,134.6z"/>
		<g>
			<path class="st18" d="M255.6,132c-0.6,0.1-1.3,0.1-2-0.1l-14.3-4.8c-1.3-0.4-2.3-1.5-2.5-2.9l-3-14.8c-0.3-1.3,0.2-2.7,1.2-3.6
				l11.3-10c1-0.9,2.5-1.2,3.7-0.8l14.3,4.8c1.3,0.4,2.3,1.5,2.5,2.9l3,14.8c0.3,1.3-0.2,2.7-1.2,3.6l-11.3,10
				C256.8,131.5,256.2,131.8,255.6,132z"/>
			<g>
				<g>
					<g>
						<path class="st19" d="M257.2,102.6l0.5,5.6c0,0.5-0.3,0.9-0.7,1l-11.4,2.3c-0.5,0.1-0.9-0.2-1.1-0.6l-1.7-5.3L257.2,102.6z"/>
						<g>
							
								<rect x="244.9" y="101" transform="matrix(0.9804 -0.1971 0.1971 0.9804 -15.2132 50.2694)" class="st20" width="0.2" height="1.2"/>
							
								<rect x="244.6" y="101.6" transform="matrix(0.9804 -0.1971 0.1971 0.9804 -15.6315 50.3976)" class="st19" width="1.6" height="4.3"/>
							<path class="st21" d="M245.4,100.4c0-0.1-0.1-0.2-0.2-0.4c-0.2-0.2-0.4-0.4-0.5-0.5l-0.1-0.1c0,0-0.4,1-0.4,1.3
								s0.4,0.6,0.7,0.5C245.2,101,245.5,100.7,245.4,100.4z"/>
						</g>
						<g>
							
								<rect x="248.9" y="98.7" transform="matrix(0.9804 -0.1971 0.1971 0.9804 -14.6806 51.0107)" class="st20" width="0.2" height="1.2"/>
							<polygon class="st19" points="249,99.3 248.2,99.5 249.1,104.2 250.7,103.9 249.8,99.2 							"/>
							<path class="st21" d="M249.4,98c0-0.1-0.1-0.2-0.2-0.4c-0.2-0.2-0.4-0.4-0.5-0.6l0,0c-0.1-0.1-0.1-0.1-0.1-0.1
								s-0.4,1-0.4,1.3c0.1,0.3,0.4,0.6,0.7,0.5S249.4,98.4,249.4,98z"/>
						</g>
						<g>
							
								<rect x="253.4" y="99.2" transform="matrix(0.9804 -0.1971 0.1971 0.9804 -14.7061 51.9233)" class="st20" width="0.2" height="1.2"/>
							<polygon class="st19" points="253.6,99.9 252.8,100.1 253.6,104.3 255.2,104 254.4,99.7 							"/>
							<path class="st21" d="M253.9,98.6c0-0.1-0.1-0.2-0.2-0.4c-0.2-0.2-0.4-0.4-0.5-0.5l-0.1-0.1c0,0-0.4,1-0.4,1.3
								s0.4,0.6,0.7,0.5C253.8,99.3,254,99,253.9,98.6z"/>
						</g>
						<path class="st9" d="M256.8,102.2L243,105c-0.6,0.1-1.1,0.7-1,1.3c0.1,0.7,0.7,1.2,1.4,1c0.3-0.1,0.6-0.3,0.8-0.5
							c0.1-0.2,0.4-0.3,0.6-0.1c0.3,0.2,0.6,0.3,0.9,0.2s0.6-0.3,0.8-0.5c0.1-0.2,0.4-0.3,0.6-0.1c0.3,0.2,0.6,0.3,0.9,0.2
							c0.3-0.1,0.6-0.3,0.8-0.5c0.1-0.2,0.4-0.3,0.6-0.1c0.3,0.2,0.6,0.3,0.9,0.2c0.3-0.1,0.6-0.3,0.8-0.5c0.1-0.2,0.4-0.3,0.6-0.1
							c0.3,0.2,0.6,0.3,0.9,0.2c0.3-0.1,0.6-0.3,0.8-0.5c0.1-0.2,0.4-0.3,0.6-0.1c0.3,0.2,0.6,0.3,0.9,0.2c0.3-0.1,0.6-0.3,0.8-0.5
							c0.1-0.2,0.4-0.3,0.6-0.1c0.3,0.2,0.6,0.3,0.9,0.2c0.6-0.1,1-0.8,0.9-1.4C258,102.5,257.4,102.1,256.8,102.2z"/>
						<path class="st20" d="M256.6,106.3c-0.2,0.3-0.3,0.5-0.7,0.6c-0.4,0.1-0.6-0.1-0.9-0.3c-0.3-0.2-0.6-0.4-1.1-0.3
							c-0.5,0.1-0.7,0.4-0.9,0.7c-0.2,0.3-0.3,0.5-0.7,0.6c-0.4,0.1-0.6-0.1-0.9-0.3c-0.3-0.2-0.6-0.4-1.1-0.3s-0.7,0.4-0.9,0.7
							c-0.2,0.3-0.3,0.5-0.7,0.6c-0.4,0.1-0.6-0.1-0.9-0.3c-0.3-0.2-0.6-0.4-1.1-0.3c-0.5,0.1-0.7,0.4-0.9,0.7
							c-0.2,0.3-0.3,0.5-0.7,0.6c-0.4,0.1-0.6-0.1-0.9-0.3c-0.2-0.2-0.5-0.4-1-0.3l0.1,0.2c0.3,0,0.5,0.1,0.7,0.3
							c0.3,0.2,0.6,0.4,1.1,0.3c0.5-0.1,0.7-0.4,0.9-0.7c0.2-0.3,0.3-0.5,0.7-0.6c0.4-0.1,0.6,0.1,0.9,0.3c0.3,0.2,0.6,0.4,1.1,0.3
							c0.5-0.1,0.7-0.4,0.9-0.7c0.2-0.3,0.3-0.5,0.7-0.6c0.4-0.1,0.6,0.1,0.9,0.3c0.3,0.2,0.6,0.4,1.1,0.3c0.5-0.1,0.7-0.4,0.9-0.7
							c0.2-0.3,0.3-0.5,0.7-0.6c0.4-0.1,0.6,0.1,0.9,0.3c0.3,0.2,0.6,0.4,1.1,0.3c0.5-0.1,0.7-0.4,0.9-0.7c0.1-0.2,0.3-0.5,0.6-0.6
							l0-0.3C257,105.7,256.8,106,256.6,106.3z"/>
						<path class="st19" d="M258.3,108.3l0.5,5.6c0,0.5-0.3,0.9-0.7,1l-11.4,2.3c-0.5,0.1-0.9-0.2-1.1-0.6l-1.7-5.3L258.3,108.3z"/>
						<path class="st9" d="M257.9,107.9l-13.8,2.8c-0.6,0.1-1.1,0.7-1,1.3c0.1,0.7,0.7,1.2,1.4,1c0.3-0.1,0.6-0.3,0.8-0.5
							c0.1-0.2,0.4-0.3,0.6-0.1c0.3,0.2,0.6,0.3,0.9,0.2c0.3-0.1,0.6-0.3,0.8-0.5c0.1-0.2,0.4-0.3,0.6-0.1c0.3,0.2,0.6,0.3,0.9,0.2
							c0.3-0.1,0.6-0.3,0.8-0.5c0.1-0.2,0.4-0.3,0.6-0.1c0.3,0.2,0.6,0.3,0.9,0.2c0.3-0.1,0.6-0.3,0.8-0.5c0.1-0.2,0.4-0.3,0.6-0.1
							c0.3,0.2,0.6,0.3,0.9,0.2c0.3-0.1,0.6-0.3,0.8-0.5c0.1-0.2,0.4-0.3,0.6-0.1c0.3,0.2,0.6,0.3,0.9,0.2c0.3-0.1,0.6-0.3,0.8-0.5
							c0.1-0.2,0.4-0.3,0.6-0.1c0.3,0.2,0.6,0.3,0.9,0.2c0.6-0.1,1-0.8,0.9-1.4C259.2,108.2,258.6,107.8,257.9,107.9z"/>
					</g>
					
						<rect x="235.9" y="113.1" transform="matrix(0.9804 -0.1971 0.1971 0.9804 -18.0698 52.05)" class="st22" width="33.1" height="7.5"/>
				</g>
				<g>
					<g>
						<path class="st21" d="M237.3,109.1c0.3-0.1,0.5-0.1,0.8-0.2c0.3,0,0.5,0,0.8,0c0.5,0,1,0.1,1.5,0.2c0.5,0.1,0.9,0.3,1.4,0.5
							c0.2,0.1,0.4,0.2,0.6,0.4c0.2,0.1,0.4,0.3,0.6,0.4c-0.2-0.1-0.4-0.2-0.6-0.3c-0.2-0.1-0.4-0.2-0.7-0.3
							c-0.4-0.2-0.9-0.3-1.4-0.4c-0.5-0.1-0.9-0.1-1.4-0.1c-0.2,0-0.5,0-0.7,0.1c-0.2,0-0.5,0.1-0.6,0.2l0,0c-0.1,0.1-0.3,0-0.4-0.1
							C237.1,109.3,237.1,109.1,237.3,109.1L237.3,109.1z"/>
						<path class="st21" d="M239.1,110.8c0.3-0.2,0.7-0.3,1-0.3c0.3,0,0.7-0.1,1,0c0.3,0,0.7,0.1,1,0.3c0.2,0.1,0.3,0.1,0.5,0.2
							c0.1,0.1,0.3,0.2,0.4,0.3c-0.2-0.1-0.3-0.1-0.4-0.2c-0.2-0.1-0.3-0.1-0.5-0.2c-0.3-0.1-0.6-0.1-1-0.1c-0.3,0-0.6,0-0.9,0.1
							c-0.3,0.1-0.6,0.2-0.8,0.4l0,0c-0.1,0.1-0.2,0-0.3-0.1C239,111.1,239,110.9,239.1,110.8L239.1,110.8z"/>
						<path class="st21" d="M239.5,107.4c0.4,0,0.7,0.1,1,0.3c0.3,0.1,0.6,0.3,0.8,0.5c0.3,0.2,0.5,0.4,0.7,0.6
							c0.1,0.1,0.2,0.2,0.3,0.3c0.1,0.1,0.2,0.2,0.3,0.4c-0.1-0.1-0.2-0.2-0.3-0.3c-0.1-0.1-0.2-0.2-0.4-0.3
							c-0.2-0.2-0.5-0.4-0.8-0.5c-0.3-0.2-0.6-0.3-0.9-0.4c-0.3-0.1-0.6-0.2-0.9-0.2l0,0c-0.1,0-0.2-0.1-0.2-0.2
							C239.3,107.5,239.4,107.4,239.5,107.4L239.5,107.4z"/>
						<path class="st21" d="M238.8,107.4c0,0.2-0.1,0.4-0.3,0.4c-0.2,0-0.4-0.1-0.4-0.3c0-0.2,0.1-0.4,0.3-0.4
							C238.6,107.1,238.8,107.2,238.8,107.4z"/>
						<path class="st21" d="M236.8,109.5c0,0.2-0.1,0.4-0.3,0.4c-0.2,0-0.4-0.1-0.4-0.3c0-0.2,0.1-0.4,0.3-0.4
							C236.5,109.2,236.7,109.3,236.8,109.5z"/>
						<circle class="st21" cx="238.5" cy="111.4" r="0.3"/>
					</g>
					<g>
						<path class="st21" d="M263.6,104.3c-0.2,0-0.4,0-0.7,0.1c-0.2,0-0.4,0.1-0.7,0.2c-0.4,0.2-0.9,0.4-1.3,0.6
							c-0.4,0.3-0.8,0.6-1.1,0.9c-0.2,0.2-0.3,0.3-0.5,0.5c-0.2,0.2-0.3,0.4-0.4,0.6c0.1-0.2,0.3-0.4,0.4-0.6
							c0.1-0.2,0.3-0.4,0.4-0.6c0.3-0.4,0.7-0.7,1-1c0.4-0.3,0.8-0.6,1.3-0.8c0.2-0.1,0.5-0.2,0.7-0.3c0.2-0.1,0.5-0.1,0.8-0.1
							c0.2,0,0.3,0.1,0.3,0.3C263.9,104.2,263.8,104.3,263.6,104.3L263.6,104.3L263.6,104.3z"/>
						<path class="st21" d="M262.5,106.6c-0.3-0.1-0.6,0-0.9,0c-0.3,0-0.6,0.1-0.9,0.3c-0.3,0.1-0.6,0.3-0.8,0.5
							c-0.1,0.1-0.2,0.2-0.4,0.3c-0.1,0.1-0.2,0.2-0.3,0.4c0.1-0.1,0.2-0.3,0.3-0.4c0.1-0.1,0.2-0.3,0.3-0.4
							c0.2-0.2,0.5-0.4,0.8-0.6c0.3-0.2,0.6-0.3,0.9-0.4c0.3-0.1,0.7-0.1,1-0.1c0.1,0,0.2,0.1,0.2,0.2
							C262.8,106.5,262.7,106.6,262.5,106.6L262.5,106.6L262.5,106.6z"/>
						<path class="st21" d="M261.1,103.4c-0.3,0.1-0.5,0.3-0.7,0.5c-0.2,0.2-0.4,0.4-0.6,0.7c-0.2,0.3-0.4,0.5-0.5,0.8
							c-0.1,0.1-0.1,0.3-0.2,0.4c-0.1,0.1-0.1,0.3-0.2,0.4c0-0.2,0.1-0.3,0.1-0.5c0.1-0.1,0.1-0.3,0.2-0.4c0.1-0.3,0.3-0.6,0.4-0.9
							c0.2-0.3,0.4-0.5,0.6-0.8c0.2-0.2,0.5-0.5,0.8-0.6c0.1,0,0.2,0,0.2,0.1S261.2,103.3,261.1,103.4L261.1,103.4L261.1,103.4z"/>
						<path class="st21" d="M261.5,102.9c0,0.2,0.2,0.3,0.4,0.3s0.3-0.2,0.3-0.4c0-0.2-0.2-0.3-0.4-0.3
							C261.6,102.5,261.5,102.7,261.5,102.9z"/>
						<path class="st21" d="M264.2,104c0,0.2,0.2,0.3,0.4,0.3c0.2,0,0.3-0.2,0.3-0.4c0-0.2-0.2-0.3-0.4-0.3S264.2,103.8,264.2,104z"
							/>
						<circle class="st21" cx="263.3" cy="106.5" r="0.3"/>
					</g>
				</g>
				<g>
					<g>
						<path class="st21" d="M245.9,123.9l-4,0.8c-0.1,0-0.2,0-0.2-0.1c0-0.1,0-0.2,0.1-0.2l4-0.8c0.1,0,0.2,0,0.2,0.1
							C246.1,123.8,246,123.9,245.9,123.9z"/>
						<path class="st21" d="M246.1,124.8l-2.5,0.5c-0.1,0-0.2,0-0.2-0.1c0-0.1,0-0.2,0.1-0.2l2.5-0.5c0.1,0,0.2,0,0.2,0.1
							C246.3,124.7,246.2,124.8,246.1,124.8z"/>
						<path class="st21" d="M246.3,125.7l-0.9,0.2c-0.1,0-0.2,0-0.2-0.1c0-0.1,0-0.2,0.1-0.2l0.9-0.2c0.1,0,0.2,0,0.2,0.1
							C246.4,125.6,246.4,125.7,246.3,125.7z"/>
					</g>
					<g>
						<path class="st21" d="M265.4,120.3l-4,0.8c-0.1,0-0.2,0-0.2-0.1c0-0.1,0-0.2,0.1-0.2l4-0.8c0.1,0,0.2,0,0.2,0.1
							C265.6,120.2,265.5,120.3,265.4,120.3z"/>
						<path class="st21" d="M264.1,121.5l-2.5,0.5c-0.1,0-0.2,0-0.2-0.1c0-0.1,0-0.2,0.1-0.2l2.5-0.5c0.1,0,0.2,0,0.2,0.1
							C264.2,121.4,264.2,121.5,264.1,121.5z"/>
						<path class="st21" d="M262.7,122.7l-0.9,0.2c-0.1,0-0.2,0-0.2-0.1c0-0.1,0-0.2,0.1-0.2l0.9-0.2c0.1,0,0.2,0,0.2,0.1
							C262.8,122.6,262.8,122.7,262.7,122.7z"/>
					</g>
					<g>
						<g>
							<path class="st9" d="M247.9,126.3l-0.1-0.7l0.7-0.1l-0.3-1.7l-0.6,0.1l-0.1-0.5c0.2-0.1,0.3-0.1,0.4-0.2
								c0.1-0.1,0.2-0.2,0.3-0.3l0.6-0.1l0.5,2.5l0.6-0.1l0.1,0.7L247.9,126.3z"/>
							<path class="st9" d="M251.7,125.6c-0.2,0-0.3,0-0.5,0c-0.2,0-0.3,0-0.4-0.1c-0.1-0.1-0.2-0.1-0.3-0.2
								c-0.1-0.1-0.1-0.2-0.2-0.3c0-0.2,0-0.4,0.1-0.5c0.1-0.1,0.2-0.3,0.3-0.4l0,0c-0.1-0.1-0.3-0.2-0.4-0.3
								c-0.1-0.1-0.2-0.2-0.2-0.4c0-0.1,0-0.3,0-0.4c0-0.1,0.1-0.2,0.2-0.3c0.1-0.1,0.2-0.2,0.3-0.3c0.1-0.1,0.3-0.1,0.4-0.2
								c0.2,0,0.3,0,0.4,0c0.1,0,0.3,0.1,0.4,0.1c0.1,0.1,0.2,0.1,0.3,0.2c0.1,0.1,0.1,0.2,0.1,0.4c0,0.2,0,0.3,0,0.4
								c-0.1,0.1-0.1,0.2-0.2,0.3l0,0c0.2,0.1,0.3,0.1,0.5,0.2c0.1,0.1,0.2,0.3,0.3,0.5c0,0.1,0,0.3,0,0.4c0,0.1-0.1,0.2-0.2,0.3
								c-0.1,0.1-0.2,0.2-0.3,0.3C252.1,125.5,251.9,125.5,251.7,125.6z M251.6,125c0.1,0,0.2-0.1,0.2-0.1c0.1-0.1,0.1-0.2,0.1-0.3
								c0-0.1,0-0.1-0.1-0.1c0,0-0.1-0.1-0.1-0.1c-0.1,0-0.1,0-0.2-0.1c-0.1,0-0.2,0-0.3-0.1c0,0.1-0.1,0.1-0.1,0.2
								c0,0.1,0,0.2,0,0.2c0,0.1,0.1,0.2,0.2,0.3C251.4,125,251.5,125,251.6,125z M251.5,123.5c0.1-0.2,0.1-0.3,0.1-0.4
								c0-0.1-0.1-0.2-0.1-0.2c-0.1-0.1-0.2-0.1-0.3,0c-0.1,0-0.1,0.1-0.2,0.1c0,0.1-0.1,0.1,0,0.3c0,0.1,0.1,0.2,0.2,0.2
								C251.2,123.5,251.4,123.5,251.5,123.5z"/>
						</g>
						<g>
							<path class="st9" d="M254.1,125.9c-0.1,0-0.1,0-0.2,0c0,0-0.1,0-0.1,0l0-0.6c0,0,0,0,0.1,0c0,0,0,0,0.1,0
								c0.1,0,0.2-0.1,0.2-0.1c0,0,0.1-0.1,0.1-0.2l0-0.1l-1.2-1.9l0.7-0.1l0.4,0.8c0.1,0.1,0.1,0.2,0.1,0.3c0,0.1,0.1,0.2,0.1,0.3
								l0,0c0-0.1,0-0.2,0-0.3c0-0.1,0-0.2,0-0.3l0-0.8l0.7-0.1l-0.3,2.2c0,0.2-0.1,0.3-0.1,0.4c0,0.1-0.1,0.2-0.1,0.3
								c-0.1,0.1-0.1,0.1-0.2,0.2C254.4,125.8,254.3,125.8,254.1,125.9z"/>
							<path class="st9" d="M255.9,124.7l-0.4-2.1l0.6-0.1l0.1,0.4l0,0c0-0.2,0.1-0.3,0.2-0.4c0.1-0.1,0.2-0.1,0.3-0.2
								c0.1,0,0.1,0,0.2,0c0,0,0.1,0,0.1,0l0,0.6c0,0-0.1,0-0.1,0c0,0-0.1,0-0.1,0c-0.1,0-0.1,0.1-0.2,0.1c-0.1,0.1-0.1,0.2-0.1,0.3
								l0.2,1.2L255.9,124.7z"/>
							<path class="st9" d="M258.3,124.2c-0.1,0-0.3,0-0.4,0c-0.2,0-0.3-0.1-0.4-0.1l0.2-0.5c0.2,0.1,0.4,0.1,0.6,0.1
								c0.1,0,0.1,0,0.2-0.1c0,0,0-0.1,0-0.1c0,0,0-0.1,0-0.1c0,0-0.1,0-0.1,0c0,0-0.1,0-0.1,0c-0.1,0-0.1,0-0.2,0
								c-0.1,0-0.1,0-0.2-0.1c-0.1,0-0.1-0.1-0.2-0.1c-0.1,0-0.1-0.1-0.2-0.1c0-0.1-0.1-0.1-0.1-0.2c0-0.1,0-0.2,0-0.3
								c0-0.1,0.1-0.2,0.1-0.2c0.1-0.1,0.1-0.1,0.2-0.2c0.1-0.1,0.2-0.1,0.3-0.1c0.2,0,0.3,0,0.5,0c0.1,0,0.3,0.1,0.4,0.1l-0.2,0.5
								c-0.1,0-0.2-0.1-0.2-0.1c-0.1,0-0.2,0-0.2,0c-0.1,0-0.2,0.1-0.2,0.2c0,0,0,0,0,0.1c0,0,0.1,0,0.1,0c0,0,0.1,0,0.1,0
								c0.1,0,0.1,0,0.2,0c0.1,0,0.1,0,0.2,0c0.1,0,0.1,0.1,0.2,0.1c0.1,0,0.1,0.1,0.2,0.2c0,0.1,0.1,0.1,0.1,0.2c0,0.1,0,0.2,0,0.3
								c0,0.1-0.1,0.2-0.1,0.3c-0.1,0.1-0.1,0.1-0.3,0.2C258.6,124.2,258.5,124.2,258.3,124.2z"/>
							<path class="st9" d="M260,123.9c-0.1,0-0.2,0-0.3-0.1c-0.1-0.1-0.2-0.2-0.2-0.3c0-0.1,0-0.2,0.1-0.3c0.1-0.1,0.2-0.2,0.3-0.2
								c0.1,0,0.2,0,0.3,0.1c0.1,0.1,0.2,0.2,0.2,0.3c0,0.1,0,0.2-0.1,0.3C260.2,123.8,260.1,123.9,260,123.9z"/>
						</g>
					</g>
				</g>
				<g>
					<path class="st18" d="M240.5,119.6l0.4-0.5c0,0,0-0.1,0-0.1c0-0.1-0.1-0.1-0.1-0.1l-0.7,0c0,0,0,0-0.1,0c0,0,0,0-0.1,0
						l-0.4-0.5c0,0-0.1-0.1-0.1-0.1c-0.1,0-0.1,0-0.1,0.1l-0.2,0.6c0,0,0,0.1-0.1,0.1l-0.6,0.2c-0.1,0-0.1,0.2,0,0.3l0.6,0.4
						c0,0,0.1,0.1,0.1,0.1l0,0.7c0,0.1,0.1,0.2,0.2,0.1l0.5-0.4c0,0,0,0,0.1,0c0,0,0,0,0,0c0,0,0,0,0,0l0.6,0.2c0,0,0,0,0,0
						c0,0,0,0,0,0c0,0,0,0,0.1,0l0,0c0,0,0,0,0-0.1c0,0,0-0.1,0-0.1l-0.2-0.6C240.5,119.7,240.5,119.7,240.5,119.6
						C240.5,119.7,240.5,119.7,240.5,119.6z"/>
					<path class="st18" d="M266.3,114.5l0.4-0.5c0,0,0-0.1,0-0.1c0-0.1-0.1-0.1-0.1-0.1l-0.7,0c0,0,0,0-0.1,0c0,0,0,0-0.1,0
						l-0.4-0.5c0,0-0.1-0.1-0.1-0.1c-0.1,0-0.1,0-0.1,0.1l-0.2,0.6c0,0,0,0.1-0.1,0.1l-0.6,0.2c-0.1,0-0.1,0.2,0,0.3l0.6,0.4
						c0,0,0.1,0.1,0.1,0.1l0,0.7c0,0.1,0.1,0.2,0.2,0.1l0.5-0.4c0,0,0,0,0.1,0c0,0,0,0,0,0c0,0,0,0,0,0l0.6,0.2c0,0,0,0,0,0
						c0,0,0,0,0,0c0,0,0,0,0.1,0l0,0c0,0,0,0,0-0.1c0,0,0-0.1,0-0.1l-0.2-0.6C266.2,114.6,266.2,114.5,266.3,114.5
						C266.2,114.5,266.2,114.5,266.3,114.5z"/>
				</g>
				<path class="st21" d="M255.7,128.4l0.4-0.5c0,0,0-0.1,0-0.1c0-0.1-0.1-0.1-0.1-0.1l-0.7,0c0,0,0,0-0.1,0c0,0,0,0-0.1,0l-0.4-0.5
					c0,0-0.1-0.1-0.1-0.1c-0.1,0-0.1,0-0.1,0.1l-0.2,0.6c0,0,0,0.1-0.1,0.1l-0.6,0.2c-0.1,0-0.1,0.2,0,0.3l0.6,0.4
					c0,0,0.1,0.1,0.1,0.1l0,0.7c0,0.1,0.1,0.2,0.2,0.1l0.5-0.4c0,0,0,0,0.1,0c0,0,0,0,0,0c0,0,0,0,0,0l0.6,0.2c0,0,0,0,0,0
					c0,0,0,0,0,0c0,0,0,0,0.1,0l0,0c0,0,0,0,0-0.1c0,0,0-0.1,0-0.1l-0.2-0.6C255.6,128.5,255.6,128.5,255.7,128.4
					C255.6,128.5,255.6,128.4,255.7,128.4z"/>
				<g>
					<g>
						<path class="st3" d="M248.1,115.7l0.6-0.3l0.6,3.1c0.1,0.3,0.2,0.5,0.4,0.6c-0.1,0.2-0.2,0.3-0.5,0.4
							c-0.3,0.1-0.5-0.1-0.6-0.5L248.1,115.7z"/>
						<path class="st3" d="M250.3,119.2l-0.5-2.2l-0.4,0.1l-0.1-0.5l1-0.2l0.6,2.8L250.3,119.2z M249.8,115.3c0.2,0,0.4,0.1,0.5,0.3
							c0,0.2-0.1,0.4-0.3,0.5s-0.4-0.1-0.5-0.3C249.5,115.5,249.6,115.3,249.8,115.3z"/>
						<path class="st3" d="M253.3,118.6l-0.3-1.6c0-0.2-0.1-0.4-0.2-0.5c-0.1-0.1-0.3-0.1-0.5-0.1c-0.1,0-0.2,0.1-0.3,0.1
							c-0.1,0.1-0.2,0.2-0.2,0.3l0.4,2l-0.7,0.1l-0.6-2.8l0.5-0.1l0.2,0.2c0.1-0.2,0.4-0.4,0.7-0.5c0.3-0.1,0.6,0,0.8,0.1
							c0.2,0.2,0.4,0.4,0.5,0.8l0.3,1.7L253.3,118.6z"/>
						<path class="st3" d="M254,117c-0.1-0.4,0-0.8,0.2-1.1c0.2-0.3,0.5-0.5,0.9-0.6c0.4-0.1,0.8,0,1.1,0.2c0.3,0.2,0.5,0.5,0.6,1
							c0.1,0.4,0,0.8-0.1,1.1c-0.2,0.3-0.5,0.5-0.9,0.6c-0.4,0.1-0.8,0-1.1-0.2C254.2,117.8,254.1,117.5,254,117z M254.7,116.9
							c0.1,0.6,0.4,0.9,0.8,0.8c0.2,0,0.4-0.2,0.4-0.3c0.1-0.2,0.1-0.4,0-0.7c-0.1-0.6-0.4-0.9-0.8-0.8c-0.2,0-0.4,0.2-0.4,0.3
							C254.6,116.4,254.6,116.6,254.7,116.9z"/>
						<path class="st3" d="M259.1,117.5l0-0.2c0,0.1-0.1,0.1-0.2,0.2c-0.1,0.1-0.2,0.1-0.4,0.1c-0.4,0.1-0.7,0-1-0.2
							c-0.3-0.2-0.5-0.5-0.5-1c-0.1-0.4,0-0.8,0.2-1.2c0.2-0.3,0.5-0.5,0.9-0.6c0.2,0,0.4,0,0.6,0l-0.2-1.1l0.6-0.3l0.8,4
							L259.1,117.5z M258.7,115.3c-0.1-0.1-0.3-0.1-0.5-0.1c-0.3,0-0.4,0.2-0.6,0.4c-0.1,0.2-0.1,0.4-0.1,0.7c0.1,0.6,0.5,0.8,1,0.7
							c0.1,0,0.2-0.1,0.2-0.1c0.1-0.1,0.1-0.1,0.2-0.1L258.7,115.3z"/>
						<path class="st3" d="M262.5,115.5l-2,0.4c0.1,0.2,0.2,0.4,0.3,0.5c0.2,0.1,0.4,0.1,0.6,0.1c0.3-0.1,0.5-0.2,0.6-0.4l0.4,0.4
							c-0.2,0.2-0.5,0.4-1,0.5c-0.4,0.1-0.8,0-1.1-0.2c-0.3-0.2-0.5-0.5-0.6-1c-0.1-0.4,0-0.8,0.2-1.1c0.2-0.3,0.5-0.5,0.9-0.6
							c0.4-0.1,0.8,0,1,0.2s0.5,0.5,0.6,0.8C262.5,115.3,262.5,115.4,262.5,115.5z M260.5,115.4l1.4-0.3c-0.1-0.4-0.4-0.6-0.8-0.5
							C260.7,114.8,260.5,115,260.5,115.4z"/>
					</g>
					<path class="st18" d="M246.4,119l-0.1-0.8l-0.8-0.3l0.1,0.7L246.4,119z"/>
					<path class="st18" d="M245.6,120l-0.2-0.8l-0.8-0.4l0.2,0.8L245.6,120z"/>
					<path class="st18" d="M244.6,121.2l-0.3-0.8l-0.9-0.6l0.3,0.8L244.6,121.2z"/>
					<path class="st3" d="M246.3,118.3l0.5-0.5l-0.8-0.3l-0.5,0.5L246.3,118.3z M245.4,119.2l0.6-0.7l-0.8-0.3l-0.6,0.6L245.4,119.2
						z M244.3,120.4l0.8-0.9l-0.8-0.4l-0.8,0.7L244.3,120.4z M243.8,119l1-0.8l-0.9-0.4l-1,0.7L243.8,119z M243.2,117.1l1.2-0.8
						l-1-0.3l-1.2,0.6L243.2,117.1z"/>
					<g>
						<path class="st23" d="M246.9,118.5c-0.5,0.5-0.5,0.6-0.5,0.6c-0.1-0.8-0.1-0.8-0.1-0.8c0.5-0.6,0.5-0.5,0.5-0.5L246.9,118.5z"
							/>
						<path class="st23" d="M246.2,119.3c-0.6,0.7-0.6,0.7-0.6,0.7c-0.2-0.8-0.2-0.8-0.2-0.8c0.7-0.7,0.6-0.7,0.6-0.7L246.2,119.3z"
							/>
						<path class="st23" d="M245.3,120.3l-0.7,0.8c-0.3-0.8-0.3-0.8-0.3-0.8c0.9-0.9,0.8-0.9,0.8-0.9L245.3,120.3z"/>
						<path class="st23" d="M244.4,116.3c0.3,1.4,0.3,1.3,0.3,1.3l-1,0.8c-0.5-1.4-0.5-1.4-0.5-1.4L244.4,116.3z"/>
						<path class="st23" d="M244.8,118.1c0.3,1,0.2,1,0.2,1l-0.8,0.9c-0.4-1-0.4-1-0.4-1L244.8,118.1z"/>
					</g>
					<path class="st18" d="M243.7,118.5l-0.5-1.4l-1-0.4l0.6,1.3L243.7,118.5z"/>
					<path class="st18" d="M244.2,120l-0.4-1l-0.9-0.5l0.4,1L244.2,120z"/>
				</g>
			</g>
		</g>
	</g>
	<g>
		<path class="st9" d="M377,87.8c-0.5,0.2-1.1,0.2-1.6,0.1l-13.8-3.1c-1.1-0.2-2-1.1-2.3-2.1L348.8,49c-0.5-1.7,0.4-3.5,2.1-4
			l23.2-7.2c1.7-0.5,3.5,0.4,4,2.1l10.5,33.7c0.3,1.1,0.1,2.2-0.7,3.1l-9.6,10.4C378,87.3,377.5,87.6,377,87.8z"/>
		<g>
			
				<linearGradient id="XMLID_3_" gradientUnits="userSpaceOnUse" x1="378.8708" y1="117.0244" x2="378.8708" y2="71.9308" gradientTransform="matrix(0.9547 -0.2977 0.2977 0.9547 -20.0635 87.133)">
				<stop  offset="0" style="stop-color:#FFFFFF"/>
				<stop  offset="1" style="stop-color:#E6E6E6"/>
			</linearGradient>
			<path id="XMLID_1_" class="st24" d="M350.5,48.4L361,82.1c0.1,0.5,0.5,0.8,1,0.9l13.8,3.1c0.5,0.1,1,0,1.3-0.4l9.6-10.4
				c0.3-0.4,0.4-0.9,0.3-1.3l-10.5-33.7c-0.2-0.8-1-1.2-1.8-0.9l-23.2,7.2C350.7,46.9,350.3,47.7,350.5,48.4z"/>
			<g>
				<g id="Gteen_Cube_1_">
					<polygon class="st25" points="361.8,57.4 367.9,58.7 365.8,51.9 359.7,50.5 					"/>
					<polygon class="st26" points="365.8,51.9 367.9,58.7 372.2,54.1 370.1,47.3 					"/>
					<polygon class="st27" points="363.9,45.9 359.7,50.5 365.8,51.9 370.1,47.3 					"/>
				</g>
				<g id="Gteen_Cube_2_">
					<polygon class="st28" points="370.1,65.6 376.2,67 374.1,60.1 368,58.8 					"/>
					<polygon class="st29" points="374.1,60.1 376.2,67 380.5,62.3 378.4,55.5 					"/>
					<polygon class="st30" points="372.2,54.1 368,58.8 374.1,60.1 378.4,55.5 					"/>
				</g>
				<g id="Gteen_Cube_3_">
					<polygon class="st31" points="359.7,68.8 365.8,70.2 363.7,63.4 357.5,62 					"/>
					<polygon class="st32" points="363.7,63.4 365.8,70.2 370.1,65.6 368,58.8 					"/>
					<polygon class="st33" points="361.8,57.4 357.5,62 363.7,63.4 368,58.8 					"/>
				</g>
			</g>
			<g>
				<g>
					<path class="st34" d="M361.4,77.3l0.8-0.3c0.5-0.2,1-0.1,1.2,0.4c0.1,0.2,0,0.5-0.2,0.7l0,0c0.3,0,0.6,0.1,0.7,0.5
						c0.2,0.5-0.2,0.9-0.8,1.1l-0.9,0.3L361.4,77.3z M362.5,78.2c0.4-0.1,0.5-0.3,0.4-0.5c-0.1-0.3-0.3-0.3-0.6-0.2l-0.3,0.1
						l0.2,0.7L362.5,78.2z M362.9,79.3c0.4-0.1,0.6-0.3,0.5-0.6c-0.1-0.3-0.3-0.3-0.7-0.2l-0.4,0.1l0.3,0.8L362.9,79.3z"/>
					<path class="st34" d="M364.4,78.7l-0.7-2.4l0.5-0.1l0.7,2.4c0,0.1,0.1,0.1,0.1,0.1c0,0,0,0,0.1,0l0.2,0.3c0,0-0.1,0.1-0.2,0.1
						C364.7,79.3,364.5,79.1,364.4,78.7z"/>
					<path class="st34" d="M365.1,78c-0.2-0.7,0.1-1.2,0.6-1.3c0.5-0.2,1.1,0.1,1.3,0.8c0.2,0.7-0.1,1.2-0.6,1.3
						C365.9,78.9,365.3,78.6,365.1,78z M366.5,77.5c-0.1-0.4-0.4-0.6-0.7-0.5c-0.3,0.1-0.4,0.4-0.3,0.8c0.1,0.4,0.4,0.6,0.7,0.5
						C366.5,78.3,366.6,77.9,366.5,77.5z"/>
					<path class="st34" d="M367.3,77.3c-0.2-0.7,0.1-1.2,0.7-1.4c0.3-0.1,0.5,0,0.7,0l-0.1,0.4c-0.1-0.1-0.3-0.1-0.4,0
						c-0.3,0.1-0.5,0.4-0.3,0.8c0.1,0.4,0.4,0.6,0.7,0.5c0.2,0,0.3-0.2,0.4-0.3l0.3,0.2c-0.1,0.2-0.3,0.4-0.6,0.4
						C368,78.2,367.5,78,367.3,77.3z"/>
					<polygon class="st34" points="368.7,74.8 369.1,74.7 369.7,76.5 369.7,76.5 370.1,75.3 370.7,75.2 370.2,76.2 371.3,77.1 
						370.8,77.3 370.1,76.6 369.9,77 370,77.5 369.6,77.7 					"/>
					<path class="st34" d="M372,76.6l0.2-0.4c0.2,0.1,0.5,0.2,0.8,0.1c0.3-0.1,0.4-0.3,0.4-0.5c-0.1-0.2-0.3-0.2-0.5-0.3l-0.4,0
						c-0.3,0-0.6-0.1-0.8-0.5c-0.1-0.4,0.1-0.9,0.7-1c0.3-0.1,0.7-0.1,0.9,0.1l-0.1,0.4c-0.2-0.1-0.4-0.1-0.6,0
						c-0.3,0.1-0.4,0.2-0.3,0.4c0.1,0.2,0.3,0.2,0.5,0.2l0.4,0c0.4,0,0.6,0.2,0.8,0.5c0.1,0.4-0.1,0.9-0.7,1.1
						C372.7,76.8,372.3,76.7,372,76.6z"/>
					<path class="st34" d="M374.2,75.5l-0.3-1l-0.3,0.1l-0.1-0.4l0.3-0.1l-0.1-0.6l0.4-0.1l0.2,0.5l0.5-0.2l0.1,0.4l-0.5,0.2l0.3,1
						c0.1,0.2,0.2,0.3,0.4,0.3c0.1,0,0.1-0.1,0.2-0.1l0.2,0.3c-0.1,0.1-0.2,0.2-0.4,0.2C374.6,76.2,374.3,75.9,374.2,75.5z"/>
					<path class="st34" d="M375.3,74.8c-0.2-0.7,0.1-1.2,0.6-1.3c0.5-0.2,1.1,0.1,1.3,0.8c0.2,0.7-0.1,1.2-0.6,1.3
						C376,75.7,375.5,75.5,375.3,74.8z M376.7,74.4c-0.1-0.4-0.4-0.6-0.7-0.5c-0.3,0.1-0.4,0.4-0.3,0.8c0.1,0.4,0.4,0.6,0.7,0.5
						C376.7,75.1,376.8,74.8,376.7,74.4z"/>
					<path class="st34" d="M377.2,73.1l0.4-0.1l0.1,0.3l0,0c0.1-0.3,0.2-0.5,0.4-0.6c0.1,0,0.2,0,0.2,0l0,0.4c-0.1,0-0.1,0-0.2,0
						c-0.2,0.1-0.3,0.2-0.3,0.6l0.4,1.2l-0.5,0.1L377.2,73.1z"/>
					<path class="st34" d="M379.1,74.1c-0.1-0.4,0.2-0.8,0.9-1.1c-0.1-0.2-0.2-0.4-0.5-0.3c-0.2,0.1-0.4,0.2-0.5,0.4l-0.3-0.3
						c0.2-0.2,0.4-0.4,0.7-0.5c0.5-0.2,0.8,0.1,1,0.6l0.4,1.2l-0.4,0.1l-0.1-0.2l0,0c-0.1,0.2-0.3,0.4-0.5,0.5
						C379.5,74.6,379.2,74.5,379.1,74.1z M380.3,73.8l-0.1-0.4c-0.5,0.2-0.7,0.4-0.6,0.6c0.1,0.2,0.2,0.2,0.4,0.2
						C380.1,74.1,380.2,73.9,380.3,73.8z"/>
					<path class="st34" d="M381.4,74.4c-0.1-0.2,0-0.3,0.2-0.5l0,0c-0.1,0-0.2-0.1-0.3-0.3c0-0.2,0-0.3,0.1-0.4l0,0
						c-0.2-0.1-0.4-0.2-0.4-0.4c-0.1-0.5,0.1-0.8,0.6-1c0.1,0,0.2,0,0.3,0l0.7-0.2l0.1,0.3l-0.4,0.1c0.1,0.1,0.2,0.2,0.2,0.3
						c0.1,0.4-0.1,0.8-0.5,0.9c-0.1,0-0.2,0-0.3,0c0,0.1-0.1,0.1,0,0.2c0,0.1,0.1,0.2,0.4,0.1l0.4-0.1c0.5-0.1,0.8-0.1,0.9,0.3
						c0.1,0.4-0.2,0.8-0.8,1C381.9,74.8,381.5,74.8,381.4,74.4z M382,72.3c-0.1-0.2-0.3-0.3-0.5-0.3c-0.2,0.1-0.3,0.2-0.2,0.5
						c0.1,0.3,0.3,0.4,0.5,0.3C382,72.8,382.1,72.6,382,72.3z M382.8,73.8c0-0.2-0.2-0.2-0.4-0.1l-0.3,0.1c-0.1,0-0.2,0.1-0.3,0.1
						c-0.1,0.1-0.1,0.2-0.1,0.3c0.1,0.2,0.3,0.2,0.6,0.1C382.7,74.2,382.8,74,382.8,73.8z"/>
					<path class="st34" d="M383,72.4c-0.2-0.6,0.1-1.2,0.6-1.3c0.5-0.2,0.9,0.1,1.1,0.7c0,0.1,0,0.2,0.1,0.2l-1.3,0.4
						c0.1,0.3,0.4,0.5,0.8,0.4c0.2-0.1,0.3-0.2,0.4-0.3l0.3,0.2c-0.2,0.2-0.4,0.4-0.6,0.4C383.7,73.3,383.2,73.1,383,72.4z
						 M384.3,71.8c-0.1-0.3-0.3-0.5-0.6-0.4c-0.2,0.1-0.4,0.3-0.3,0.6L384.3,71.8z"/>
				</g>
			</g>
		</g>
	</g>
	<g>
		<path class="st9" d="M341.3,87.3c0.5-2-0.8-3.9-2.7-4.4c-0.8-0.2-1.3-1-1.1-1.8l2.1-9.1c0.6-2.5-1-5-3.5-5.6
			c-1.2-0.3-2.4-0.1-3.5,0.6l0,0c-0.4,0.2-0.9,0.2-1.2-0.1c-2.7-2.8-6.1-4.8-10-5.7c-9.4-2.2-19.1,2.6-23.1,11.4
			c-0.1,0.3-0.2,0.6-0.3,0.9l-1.6-0.4c-2.3-0.6-4.7,0.9-5.2,3.2l-1.2,5c-0.5,1.9,0.7,3.9,2.7,4.3c1.2,0.3,1.9,1.4,1.6,2.6l-2.1,9.1
			c-0.3,1.3-0.1,2.6,0.6,3.6c0.7,1,1.7,1.7,2.8,2c1.2,0.3,2.4,0.1,3.5-0.6l0,0c0.4-0.2,0.9-0.2,1.2,0.1c2.7,2.8,6.1,4.8,10,5.7
			c9.4,2.2,19.1-2.6,23.1-11.4l0-0.1c0.3-0.8,1.2-1.2,2-1c2,0.5,4-0.8,4.5-2.8L341.3,87.3z"/>
		
			<linearGradient id="SVGID_4_" gradientUnits="userSpaceOnUse" x1="298.0001" y1="77.1786" x2="316.8542" y2="96.0327" gradientTransform="matrix(0.9734 0.2293 -0.2293 0.9734 32.3735 -59.7239)">
			<stop  offset="0" style="stop-color:#2E6B4C"/>
			<stop  offset="1" style="stop-color:#1BB35E"/>
		</linearGradient>
		<path class="st35" d="M308.3,89.8c1.4,0.3,1.8,2.3,0.5,3l-3.5,2.2c1.6,2.5,4.1,4.2,7,4.9c5.2,1.2,10.6-1.3,13-6
			c0.2-0.3,0.6-0.5,0.9-0.4l3.9,0.9c0.5,0.1,0.8,0.7,0.6,1.1c-3.3,7.4-11.5,11.7-19.6,9.7c-4.5-1.1-8.1-3.8-10.5-7.3l-3,1.8
			c-1.3,0.8-2.8-0.4-2.5-1.8l2.1-9c0.2-0.9,1.1-1.4,2-1.2L308.3,89.8z"/>
		
			<linearGradient id="SVGID_5_" gradientUnits="userSpaceOnUse" x1="301.2682" y1="55.0547" x2="320.1223" y2="73.9088" gradientTransform="matrix(0.9734 0.2293 -0.2293 0.9734 32.3735 -59.7239)">
			<stop  offset="0" style="stop-color:#1BB35E"/>
			<stop  offset="1" style="stop-color:#2E6B4C"/>
		</linearGradient>
		<path class="st36" d="M319.5,69.5c-5.2-1.2-10.6,1.3-13,6c-0.2,0.3-0.6,0.5-0.9,0.4l-3.9-0.9c-0.5-0.1-0.8-0.7-0.6-1.1
			c3.3-7.4,11.5-11.7,19.6-9.7c4.5,1.1,8.1,3.8,10.5,7.3l3-1.8c1.3-0.8,2.8,0.4,2.5,1.8l-2.1,9c-0.2,0.9-1.1,1.4-2,1.2l-9-2.1
			c-1.4-0.3-1.8-2.3-0.5-3l3.5-2.2C324.8,71.9,322.4,70.1,319.5,69.5z"/>
		<text transform="matrix(0.9734 0.2293 -0.2293 0.9734 292.7366 82.9174)" class="st37 st38 st39">BACKUPS</text>
		<g>
			<g>
				<polygon class="st37" points="309.6,76.3 310.3,73.2 310.6,73.3 309.9,76.1 310.8,76.3 310.7,76.5 				"/>
				
					<rect x="310.2" y="75" transform="matrix(0.2292 -0.9734 0.9734 0.2292 167.1223 361.4052)" class="st37" width="3.1" height="0.3"/>
				<polygon class="st37" points="312.2,76.9 313,73.9 313.2,73.9 313.6,76.5 314.1,74.1 314.4,74.2 313.7,77.2 313.5,77.2 
					313,74.6 312.5,76.9 				"/>
				<path class="st37" d="M315.1,77.6c-0.1,0-0.3-0.1-0.4-0.2c-0.1-0.1-0.2-0.2-0.2-0.3s-0.1-0.2-0.1-0.3c0-0.1,0-0.2,0.1-0.4
					l0.3-1.3c0-0.1,0.1-0.3,0.1-0.4s0.1-0.2,0.2-0.3c0.1-0.1,0.2-0.1,0.3-0.1c0.1,0,0.2,0,0.4,0c0.1,0,0.3,0.1,0.4,0.2
					c0.1,0.1,0.2,0.1,0.2,0.2c0,0.1,0.1,0.2,0.1,0.3c0,0.1,0,0.2,0,0.4l-0.3,1.3c0,0.1-0.1,0.2-0.1,0.3c0,0.1-0.1,0.2-0.1,0.2
					c-0.1,0.1-0.1,0.1-0.2,0.2c-0.1,0-0.2,0.1-0.3,0.1C315.3,77.6,315.2,77.6,315.1,77.6z M314.9,77.3c0.1,0,0.1,0.1,0.2,0.1
					c0.1,0,0.2,0,0.3,0s0.1,0,0.2-0.1c0-0.1,0.1-0.1,0.1-0.2c0-0.1,0.1-0.2,0.1-0.3l0.3-1.4c0-0.1,0-0.2,0-0.3c0-0.1,0-0.1,0-0.2
					s-0.1-0.1-0.1-0.2c-0.1,0-0.1-0.1-0.2-0.1s-0.2,0-0.3,0c-0.1,0-0.1,0-0.2,0.1c0,0.1-0.1,0.1-0.1,0.2c0,0.1-0.1,0.2-0.1,0.3
					l-0.3,1.4c0,0.1,0,0.2,0,0.3c0,0.1,0,0.1,0,0.2C314.8,77.2,314.8,77.2,314.9,77.3z"/>
				<path class="st37" d="M316.5,77.9l0.7-3l0.7,0.2c0.1,0,0.2,0.1,0.3,0.1c0.1,0,0.2,0.1,0.2,0.2c0.1,0.1,0.1,0.1,0.1,0.2
					c0,0.1,0,0.2,0,0.3s0,0.2,0,0.3l-0.3,1.2c0,0.1-0.1,0.3-0.1,0.4c-0.1,0.1-0.1,0.2-0.2,0.3c-0.1,0.1-0.2,0.1-0.3,0.1
					c-0.1,0-0.2,0-0.4,0L316.5,77.9z M316.9,77.7l0.4,0.1c0.1,0,0.2,0,0.2,0c0.1,0,0.1,0,0.2-0.1c0,0,0.1-0.1,0.1-0.1
					c0-0.1,0.1-0.1,0.1-0.2c0-0.1,0-0.1,0.1-0.2l0.3-1.1c0-0.1,0-0.2,0-0.3c0-0.1,0-0.1,0-0.2c0-0.1,0-0.1-0.1-0.2s-0.1-0.1-0.1-0.1
					c-0.1,0-0.1-0.1-0.2-0.1l-0.4-0.1L316.9,77.7z"/>
				<polygon class="st37" points="318.7,78.4 319.4,75.4 320.5,75.6 320.4,75.8 319.6,75.7 319.3,76.8 320,76.9 320,77.2 319.3,77 
					319,78.3 319.8,78.4 319.8,78.7 				"/>
			</g>
		</g>
		<g>
			<g>
				<polygon class="st37" points="322.8,93.4 322.1,96.4 321.8,96.3 322.5,93.5 321.6,93.3 321.7,93.1 				"/>
				<polygon class="st37" points="321.1,93 320.4,96 320.1,95.9 320.8,92.9 				"/>
				<polygon class="st37" points="320.2,92.7 319.4,95.8 319.2,95.7 318.8,93.1 318.3,95.5 318,95.4 318.7,92.4 318.9,92.4 
					319.3,95.1 319.9,92.7 				"/>
				<path class="st37" d="M317.3,92c0.1,0,0.3,0.1,0.4,0.2c0.1,0.1,0.2,0.2,0.2,0.3c0,0.1,0.1,0.2,0.1,0.3s0,0.2-0.1,0.4l-0.3,1.3
					c0,0.1-0.1,0.3-0.1,0.4s-0.1,0.2-0.2,0.3c-0.1,0.1-0.2,0.1-0.3,0.1c-0.1,0-0.2,0-0.4,0c-0.1,0-0.3-0.1-0.4-0.2
					c-0.1-0.1-0.2-0.1-0.2-0.2c0-0.1-0.1-0.2-0.1-0.3c0-0.1,0-0.2,0-0.4l0.3-1.3c0-0.1,0.1-0.2,0.1-0.3c0-0.1,0.1-0.2,0.1-0.2
					s0.1-0.1,0.2-0.2c0.1,0,0.2-0.1,0.3-0.1C317.1,92,317.2,92,317.3,92z M317.5,92.4c-0.1,0-0.1-0.1-0.2-0.1s-0.2,0-0.3,0
					c-0.1,0-0.1,0-0.2,0.1c0,0.1-0.1,0.1-0.1,0.2c0,0.1-0.1,0.2-0.1,0.3l-0.3,1.4c0,0.1,0,0.2,0,0.3c0,0.1,0,0.1,0,0.2
					c0,0.1,0.1,0.1,0.1,0.2c0.1,0,0.1,0.1,0.2,0.1c0.1,0,0.2,0,0.3,0c0.1,0,0.1,0,0.2-0.1c0-0.1,0.1-0.1,0.1-0.2
					c0-0.1,0.1-0.2,0.1-0.3l0.3-1.4c0-0.1,0-0.2,0-0.3c0-0.1,0-0.1,0-0.2C317.6,92.5,317.6,92.4,317.5,92.4z"/>
				<path class="st37" d="M315.9,91.7l-0.7,3l-0.7-0.2c-0.1,0-0.2-0.1-0.3-0.1c-0.1-0.1-0.2-0.1-0.2-0.2c-0.1-0.1-0.1-0.1-0.1-0.2
					c0-0.1,0-0.2,0-0.3s0-0.2,0-0.3l0.3-1.2c0-0.1,0.1-0.3,0.1-0.4c0.1-0.1,0.1-0.2,0.2-0.3c0.1-0.1,0.2-0.1,0.3-0.1
					c0.1,0,0.2,0,0.4,0L315.9,91.7z M315.5,91.9l-0.4-0.1c-0.1,0-0.2,0-0.2,0c-0.1,0-0.1,0-0.2,0.1c0,0-0.1,0.1-0.1,0.1
					c0,0.1-0.1,0.1-0.1,0.2c0,0.1,0,0.1-0.1,0.2l-0.3,1.1c0,0.1,0,0.2,0,0.3c0,0.1,0,0.1,0,0.2c0,0.1,0,0.1,0.1,0.2s0.1,0.1,0.1,0.1
					c0.1,0,0.1,0.1,0.2,0.1l0.4,0.1L315.5,91.9z"/>
				<polygon class="st37" points="313.7,91.2 313,94.3 311.9,94 312,93.8 312.8,94 313.1,92.8 312.4,92.7 312.4,92.5 313.1,92.6 
					313.4,91.4 312.6,91.2 312.6,91 				"/>
			</g>
		</g>
	</g>
	<path class="st6" d="M127.2,115.4l-17.4,27.4c1-0.3,1.9-0.6,2.9-0.9C116.2,134.3,122.7,124.7,127.2,115.4z"/>
	<path class="st6" d="M110.2,150.7c-0.2-2.3,0.8-5.4,2.4-9c-1,0.3-2,0.6-2.9,0.9l-4.2,6.7L110.2,150.7z"/>
	<path class="st3" d="M51.1,132.2h-2.2l-0.8-2.5c-0.1-0.4-0.6-0.8-1.1-0.8h-0.1l-0.3-0.8H26.9l-0.3,0.8h-0.1c-0.5,0-0.9,0.3-1.1,0.8
		l-0.8,2.5h-2.2c-0.5,0-0.8,0.4-0.8,0.8v4.1c0,0.5,0.4,0.8,0.8,0.8h28.7c0.5,0,0.8-0.4,0.8-0.8V133
		C51.9,132.6,51.5,132.2,51.1,132.2z"/>
	<path class="st40" d="M25.1,147.9h6.5c1.2-1.6,3.1-2.6,5.2-2.6s4,1,5.2,2.6h6.5l1.2-10H23.8L25.1,147.9z"/>
	<path class="st40" d="M36.7,158.4c-2.1,0-4-1-5.2-2.6H26l1.6,13.2c0.1,0.4,0.5,0.8,0.9,0.8h16.4c0.5,0,0.9-0.4,0.9-0.8l1.6-13.2
		h-5.5C40.7,157.4,38.9,158.4,36.7,158.4z"/>
	<path class="st9" d="M41.9,147.9c-1.2-1.6-3.1-2.6-5.2-2.6s-4,1-5.2,2.6h-6.5l1,7.9h5.5c1.2,1.6,3.1,2.6,5.2,2.6s4-1,5.2-2.6h5.5
		l1-7.9H41.9z"/>
	<path class="st6" d="M168.9,127.5c-0.7,0-1.2,0.3-1.6,0.8s-0.6,1.2-0.6,2.2c0,2,0.7,3,2.2,3c0.7,0,1.2-0.3,1.6-0.8
		c0.4-0.5,0.6-1.3,0.6-2.2C171,128.5,170.3,127.5,168.9,127.5z"/>
	<path class="st6" d="M154.8,126h1.5l0.4,0.8c0.6-0.7,1.4-1,2.6-1c1.1,0,1.9,0.3,2.6,1c0.6,0.6,0.9,1.5,1,2.7v4.8c1.1,0,2.2,0,3.3,0
		c-0.1-0.1-0.3-0.2-0.4-0.4c-0.8-0.9-1.2-2-1.2-3.4c0-1.4,0.4-2.5,1.2-3.4c0.8-0.9,1.9-1.3,3.2-1.3c1.4,0,2.5,0.4,3.2,1.2
		c0.8,0.8,1.2,2,1.2,3.4c0,1.4-0.4,2.6-1.2,3.5c-0.1,0.2-0.3,0.3-0.5,0.4c1.5,0,3.1,0.1,4.6,0.2c-0.2-0.2-0.4-0.3-0.6-0.5
		c-0.7-0.8-1.1-1.9-1.1-3.4c0-1.4,0.4-2.6,1.2-3.5c0.8-0.9,1.9-1.4,3.1-1.4c0.7,0,1.3,0.1,1.9,0.4v-3.6l2.1-0.5v12.9
		c0.5,0,1,0.1,1.5,0.1v-15.3l-15.3-8.9l-15.3,8.9v14.9c0.4,0,0.7,0,1.1-0.1V126z"/>
	<path class="st6" d="M179.4,127.6c-0.8,0-1.5,0.3-2,0.8c-0.5,0.5-0.7,1.3-0.7,2.2c0,1.9,0.9,2.8,2.7,2.8c0.2,0,0.5-0.1,0.8-0.2
		c0.3-0.1,0.5-0.2,0.6-0.4v-4.7C180.3,127.7,179.9,127.6,179.4,127.6z"/>
	<path class="st6" d="M180.4,134.8c0.1,0,0.3,0,0.4,0v-0.3C180.7,134.6,180.6,134.7,180.4,134.8z"/>
	<path class="st6" d="M160.2,128.1c-0.3-0.4-0.8-0.5-1.5-0.5c-0.3,0-0.6,0.1-1,0.3s-0.6,0.4-0.8,0.7v6c1.2-0.1,2.5-0.1,3.7-0.1v-4.6
		C160.7,129,160.5,128.5,160.2,128.1z"/>
	<path class="st6" d="M169.1,146.4l15.3-8.9v-2.4c-0.5,0-1-0.1-1.5-0.1l0,0.1h-2.1v-0.2c-0.1,0-0.3,0-0.4,0
		c-0.1,0.1-0.3,0.1-0.5,0.2c-0.4,0.1-0.9,0.2-1.3,0.2c-0.9,0-1.7-0.2-2.4-0.7c-1.5-0.1-3.1-0.1-4.6-0.2c-0.7,0.6-1.6,0.9-2.7,0.9
		c-1.2,0-2.1-0.3-2.8-0.9c-1.1,0-2.2,0-3.3,0l0,0.7h-2.1l0-0.7c-1.2,0-2.5,0.1-3.7,0.1l0,0.6h-2.1l0-0.5c-0.4,0-0.7,0-1.1,0.1v2.8
		L169.1,146.4z"/>
	<path class="st41" d="M148,134.3c-0.7-0.2-1-0.9-1-2v-10.2l-2.1,0.5v10.6c0,1.2,0.4,1.9,1.2,2c0.3,0,0.6-0.1,0.9-0.1
		C147.5,135,147.8,134.8,148,134.3z"/>
	<path class="st41" d="M147,135.2c-0.3,0-0.6,0.1-0.9,0.1c0.1,0,0.2,0,0.3,0C146.6,135.3,146.8,135.2,147,135.2z"/>
	<path class="st41" d="M151.3,125c0.3,0,0.6-0.1,0.9-0.4c0.2-0.2,0.4-0.5,0.4-0.9s-0.1-0.6-0.4-0.9c-0.2-0.2-0.5-0.4-0.9-0.4
		c-0.3,0-0.6,0.1-0.9,0.4c-0.2,0.2-0.4,0.5-0.4,0.9c0,0.3,0.1,0.6,0.4,0.9C150.7,124.8,151,125,151.3,125z"/>
	<path class="st41" d="M152.4,126h-3.3v1.7h1.2v7.2c0.7-0.1,1.4-0.1,2.1-0.2V126z"/>
	<path class="st41" d="M152.4,135.1v-0.3c-0.7,0-1.4,0.1-2.1,0.2v0.2H152.4z"/>
	<path class="st41" d="M161.9,126.8c-0.6-0.6-1.5-1-2.6-1c-1.1,0-2,0.3-2.6,1l-0.4-0.8h-1.5v8.6c0.7,0,1.4-0.1,2.1-0.1v-6
		c0.2-0.3,0.5-0.5,0.8-0.7s0.7-0.3,1-0.3c0.7,0,1.2,0.2,1.5,0.5c0.3,0.4,0.5,0.9,0.5,1.7v4.6c0.7,0,1.4,0,2.1,0v-4.8
		C162.8,128.3,162.5,127.4,161.9,126.8z"/>
	<path class="st41" d="M154.9,135.1h2.1l0-0.6c-0.7,0-1.4,0.1-2.1,0.1L154.9,135.1z"/>
	<path class="st41" d="M160.7,135.1h2.1l0-0.7c-0.7,0-1.4,0-2.1,0L160.7,135.1z"/>
	<path class="st41" d="M173.2,130.5c0-1.5-0.4-2.6-1.2-3.4c-0.8-0.8-1.8-1.3-3.2-1.2c-1.3,0-2.4,0.4-3.2,1.3c-0.8,0.9-1.2,2-1.2,3.4
		c0,1.4,0.4,2.6,1.2,3.4c0.1,0.1,0.3,0.2,0.4,0.4c1.8,0,3.7,0,5.5,0.1c0.2-0.1,0.3-0.3,0.5-0.4C172.9,133.1,173.3,131.9,173.2,130.5
		z M170.5,132.7c-0.4,0.5-0.9,0.8-1.6,0.8c-1.4,0-2.2-1-2.2-3c0-0.9,0.2-1.7,0.6-2.2s0.9-0.8,1.6-0.8c1.4,0,2.2,1,2.2,3
		C171,131.4,170.9,132.2,170.5,132.7z"/>
	<path class="st41" d="M166.1,134.3c0.7,0.6,1.7,0.9,2.8,0.9c1.1,0,2-0.3,2.7-0.9C169.8,134.3,167.9,134.3,166.1,134.3z"/>
	<path class="st41" d="M180.8,122.5v3.6c-0.6-0.3-1.2-0.4-1.9-0.4c-1.3,0-2.3,0.5-3.1,1.4c-0.8,0.9-1.2,2.1-1.2,3.5
		c0,1.4,0.4,2.6,1.1,3.4c0.2,0.2,0.4,0.4,0.6,0.5c1.4,0.1,2.8,0.1,4.2,0.2c0.2-0.1,0.3-0.2,0.4-0.3v0.3c0.7,0,1.4,0.1,2.1,0.2V122
		L180.8,122.5z M180.2,133.2c-0.3,0.1-0.5,0.2-0.8,0.2c-1.8,0-2.7-0.9-2.7-2.8c0-1,0.2-1.7,0.7-2.2c0.5-0.5,1.1-0.8,2-0.8
		c0.5,0,1,0.2,1.4,0.5v4.7C180.7,133,180.5,133.1,180.2,133.2z"/>
	<path class="st41" d="M180.8,135h2.1l0-0.1c-0.7-0.1-1.4-0.1-2.1-0.2V135z"/>
	<path class="st41" d="M178.6,135.2c0.4,0,0.9-0.1,1.3-0.2c0.2-0.1,0.3-0.1,0.5-0.2c-1.4-0.1-2.8-0.2-4.2-0.2
		C176.9,135,177.7,135.2,178.6,135.2z"/>
	<path class="st41" d="M189,135.2c1.5,0,2.6-0.3,3.3-0.9l-0.8-1.6c-0.5,0.5-1.2,0.8-2.2,0.8c-0.8,0-1.4-0.2-1.9-0.6s-0.7-1-0.8-1.7
		h6.5c0.1-0.5,0.2-0.9,0.2-1.2c0-1.2-0.4-2.2-1.2-3c-0.8-0.8-1.9-1.2-3.2-1.2c-1.2,0-2.3,0.5-3.2,1.3c-0.9,0.9-1.3,2.1-1.3,3.5
		c0,1.5,0.4,2.6,1.2,3.4C186.5,134.8,187.6,135.2,189,135.2z M189,127.5c1.3,0,2.1,0.7,2.2,2h-4.5C187,128.2,187.8,127.5,189,127.5z
		"/>
	<path class="st9" d="M133.8,202.9l18.7,7.5c17.7-0.2,55.9,0,55.9,0V183h-87.3v14.8L133.8,202.9z"/>
	<g>
		<path class="st42" d="M206,276.9c0.2-4,0.4-7.7,0.5-11L206,276.9z"/>
	</g>
	<g>
		<path class="st42" d="M206.5,265.9l0-0.1L206.5,265.9z"/>
	</g>
	<path class="st3" d="M203.8,384.3c-3.1-1.2-5.4-3.8-6.4-6.9h-18.7v24.8h57.6v-5.4L203.8,384.3z"/>
	<g>
		<path class="st42" d="M195.3,270.3l-25.2-15.6l6.5,122.7h23.6c2.9-48.4,4.7-79.6,5.7-100.5L195.3,270.3z"/>
	</g>
	<g>
		<path class="st42" d="M100.1,230.9C100.1,230.9,100.1,230.9,100.1,230.9C100.1,230.9,100.1,230.9,100.1,230.9z"/>
	</g>
	<g>
		<path class="st42" d="M96.1,215.2c0,0.4,0,0.9,0,1.3C96.1,216.1,96.1,215.7,96.1,215.2z"/>
	</g>
	<g>
		<path class="st42" d="M96.1,218.9c0,0.2,0,0.4,0,0.6C96.1,219.3,96.1,219.1,96.1,218.9z"/>
	</g>
	<g>
		<path class="st42" d="M99.5,230.1c0,0,0.1,0.1,0.1,0.1C99.6,230.2,99.5,230.2,99.5,230.1z"/>
	</g>
	<g>
		<path class="st42" d="M101.8,232.7c0.1,0.1,0.1,0.1,0.2,0.2C101.9,232.8,101.9,232.8,101.8,232.7z"/>
	</g>
	<g>
		<path class="st42" d="M96.1,218.2c0-0.4,0-0.8,0-1.2C96.1,217.4,96.1,217.8,96.1,218.2z"/>
	</g>
	<g>
		<path class="st42" d="M106.4,235.1c-0.3-0.1-0.5-0.1-0.8-0.2c0.1,0,0.1,0,0.2,0.1C106,235,106.2,235.1,106.4,235.1z"/>
	</g>
	<g>
		<path class="st42" d="M102.5,233.3c0.1,0.1,0.1,0.1,0.2,0.2C102.7,233.4,102.6,233.4,102.5,233.3z"/>
	</g>
	<g>
		<path class="st42" d="M96.2,213.7c0.1-1.3,0.4-2.6,0.7-3.9c-0.4,1.7-0.7,3.5-0.8,5.4C96.1,214.7,96.2,214.2,96.2,213.7z"/>
	</g>
	<g>
		<path class="st42" d="M104.7,234.6c0.1,0,0.2,0.1,0.3,0.1C104.9,234.6,104.8,234.6,104.7,234.6z"/>
	</g>
	<g>
		<path class="st42" d="M207.8,223.2c0.1-3.2,0.3-7.2,0.7-12.9c0,0-38.2-0.2-55.9,0l6,2.4l-38.1-15.2l105.7,41.1l-18.5-7.1
			C207.6,228.9,207.7,226.4,207.8,223.2z"/>
	</g>
	<g>
		<path class="st42" d="M97,209.6c0.1-0.4,0.2-0.8,0.3-1.2c0.2-0.6,0.4-1.2,0.7-1.8c-0.3,0.6-0.5,1.2-0.7,1.8
			C97.2,208.8,97.1,209.2,97,209.6z"/>
	</g>
	<g>
		<path class="st42" d="M237.2,242.9l-116.8-45.3c-1.2-0.5-2.4-0.8-3.5-1c-1.8-0.3-3.6-0.3-5.3-0.1c-3.5,0.5-6.8,2-9.4,4.4
			c-1.3,1.2-2.5,2.6-3.4,4.2c-0.3,0.5-0.6,1.1-0.8,1.6c-0.3,0.6-0.5,1.2-0.7,1.8c-0.1,0.4-0.2,0.8-0.3,1.2c0,0.1,0,0.1,0,0.2
			c-0.3,1.2-0.5,2.5-0.7,3.9c-0.1,0.5-0.1,1-0.1,1.6c0,0.4,0,0.9,0,1.3c0,0.1,0,0.3,0,0.4c0,0.4,0,0.8,0,1.2c0,0.2,0,0.5,0,0.7
			c0,0.2,0,0.4,0,0.6c0.3,3.9,1.4,7.7,3.4,10.7c0,0,0.1,0.1,0.1,0.1c0.2,0.2,0.3,0.4,0.5,0.7c0,0,0,0.1,0.1,0.1
			c0.5,0.6,1.1,1.2,1.7,1.8c0.1,0.1,0.1,0.1,0.2,0.2c0.2,0.1,0.4,0.3,0.5,0.4c0.1,0.1,0.1,0.1,0.2,0.2c0.6,0.4,1.3,0.8,2,1.1
			c0.1,0,0.2,0.1,0.3,0.1c0.2,0.1,0.4,0.2,0.6,0.2c0.2,0.1,0.5,0.2,0.8,0.2c0.2,0.1,2.1,0.7,5.3,1.7c9.8,3.1,156.7,48,159.8,49.2
			l3.9-28.5L237.2,242.9z"/>
	</g>
	<g>
		<path class="st42" d="M133.8,202.9l-12.6-5L133.8,202.9z"/>
	</g>
	<g>
		<polygon class="st42" points="158.6,212.7 152.6,210.3 142.5,206.3 		"/>
	</g>
	<g>
		<path class="st42" d="M140.3,205.5l-3-1.2L140.3,205.5z"/>
	</g>
	<g>
		<path class="st42" d="M136.5,203.9l-2.6-1L136.5,203.9z"/>
	</g>
	<path class="st8" d="M206,277L206,277L206,277z"/>
	<path class="st8" d="M184.3,259l-14.1-4.3L206,277c0,0,0.5-11.2,0.5-11.2L184.3,259z"/>
	<polygon class="st2" points="208.5,170 209.1,170 208.5,169.2 	"/>
	<path class="st2" d="M203.2,162.8c-1.5-1.2-7.9-1.3-9.8-1.1c-19.1,2.7-48.3-4.1-73.2-9.1c-8.9-1.8-17.2-3.3-24.4-4
		c-13.7-1.3-23.1,0.3-23.9,8.8c-0.3,3.3,1.2,6.4,4,8.8c0.8,0.7,1.7,1.4,2.8,1.9c1.3,0.7,2.7,1.3,4.2,1.7h125.8v-0.8L203.2,162.8z"/>
	<polygon class="st5" points="333.7,170 0,170 0,183 399.8,183 399.8,170 	"/>
</g>
</svg>
