<svg viewBox="0 0 161.48 146.06" xmlns="http://www.w3.org/2000/svg"><g stroke="#32363b" stroke-miterlimit="10" stroke-width="3.59"><circle cx="80.73" cy="55.22" fill="#00b050" r="18.92"/><path d="m49.62 104c3.66-12.13 20.28-23 20.28-23a17.62 17.62 0 0 0 21.66 0s16.63 10.89 20.28 23a3.5 3.5 0 0 1 -3.33 4.53h-55.51a3.5 3.5 0 0 1 -3.38-4.53z" fill="#00b050"/><rect fill="#fff" height="35.06" rx="5.71" width="11.42" x="24.65" y="67.44"/><rect fill="#fff" height="35.06" rx="5.71" width="11.42" x="125.25" y="67.44"/><path d="m25.54 69.56a55.15 55.15 0 0 1 110.23 0" fill="none"/><rect fill="#fff" height="7.81" rx="3.9" width="16.96" x="84.91" y="120.72"/><path d="m101.87 124.62h12a17 17 0 0 0 17-17v-5.12" fill="none"/></g></svg>