<svg enable-background="new 0 0 121 90" viewBox="0 0 121 90" xmlns="http://www.w3.org/2000/svg"><path d="m28.5 57.3c-.6 0-1.3-.3-1.7-.7l-24.7-24.6c-1-1-1-2.5 0-3.5l24.6-24.6c.7-.7 1.8-.9 2.7-.5s1.5 1.3 1.5 2.3v12.3h49.3c2.7 0 4.9 2.2 4.9 4.9v14.8c0 2.7-2.2 4.9-4.9 4.9h-49.3v12.3c0 1-.6 1.9-1.5 2.3-.3.1-.6.1-.9.1zm-21.2-27.1 18.7 18.7v-8.8c0-1.4 1.1-2.5 2.5-2.5h51.7v-14.8h-51.7c-1.4 0-2.5-1.1-2.5-2.5v-8.8z"/><path d="m92.5 86.9c-.3 0-.6-.1-.9-.2-.9-.4-1.5-1.3-1.5-2.3v-12.3h-49.3c-2.7 0-4.9-2.2-4.9-4.9v-14.8c0-2.7 2.2-4.9 4.9-4.9h49.2v-12.4c0-1 .6-1.9 1.5-2.3s2-.2 2.7.5l24.7 24.7c1 1 1 2.5 0 3.5l-24.7 24.6c-.4.5-1.1.8-1.7.8z"/><path d="m40.8 52.4v14.8h51.7c1.4 0 2.5 1.1 2.5 2.5v8.8l18.7-18.7-18.7-18.7v8.8c0 1.4-1.1 2.5-2.5 2.5z" fill="#00b058"/></svg>