<?xml version="1.0" encoding="utf-8"?>
<!-- Generator: Adobe Illustrator 25.0.0, SVG Export Plug-In . SVG Version: 6.00 Build 0)  -->
<svg version="1.1" id="Layer_1" xmlns="http://www.w3.org/2000/svg" xmlns:xlink="http://www.w3.org/1999/xlink" x="0px" y="0px"
	 viewBox="0 0 121 90" style="enable-background:new 0 0 121 90;" xml:space="preserve">
<style type="text/css">
	.st0{fill:#00B050;}
</style>
<desc>Created with Sketch.</desc>
<g>
	<path d="M94,63.5c-2,0-3.8,0.8-5.2,2.2l-8.2-5.9c2.4-3.7,4-8.2,4-13.1c0-12.8-10.2-23.3-22.8-24v-7.6c3.6-0.6,6.2-3.6,6.2-7.3
		c0-4.1-3.4-7.4-7.4-7.4c-4,0-7.4,3.4-7.4,7.4c0,3.6,2.8,6.7,6.2,7.3v7.6c-12.8,0.6-22.9,11-22.9,24c0,4.9,1.4,9.4,4,13.1l-8.2,5.9
		c-1.3-1.3-3.1-2.2-5.2-2.2c-4.1,0-7.4,3.4-7.4,7.4c0,4,3.4,7.4,7.4,7.4s7.4-3.4,7.4-7.4c0-1.2-0.3-2.3-0.8-3.4l8.2-5.9
		c4.3,5.5,11.2,8.9,18.7,8.9s14.3-3.6,18.7-8.9l8.2,5.9c-0.5,1-0.8,2.2-0.8,3.4c0,4.1,3.4,7.4,7.4,7.4c4.1,0,7.4-3.4,7.4-7.4
		S98,63.5,94,63.5z M77.1,57.2c-0.3,0.5-0.8,1.2-1.2,1.7c-3.7,4.4-9.2,7.2-15.2,7.2c-6.1,0-11.5-2.9-15-7.2
		c-0.4-0.5-0.8-1.1-1.2-1.7c-2.1-3-3.1-6.7-3.1-10.5c0-10.4,8.1-18.7,18.4-19.4c0.3,0,0.7-0.1,1-0.1c0.3,0,0.7,0,1.1,0.1
		c10.2,0.5,18.3,9,18.3,19.4C80.2,50.6,79,54.1,77.1,57.2z"/>
	<path class="st0" d="M24.5,58.1V26.9l24.1-14c0.5,1.1,1.2,2.3,2.1,3.2c0.6,0.7,1.2,1.3,2,1.8c-12.6,3.5-21.8,14.9-21.8,28.6
		c0,4,0.8,7.9,2.3,11.5l-1,0.8c-1.6-0.6-3.2-1-4.9-1C26.2,57.8,25.3,57.9,24.5,58.1z M68.5,18.1c5.1,1.4,9.8,4.2,13.5,8.2
		c5.3,5.6,8.2,12.8,8.2,20.5c0,3.9-0.8,7.8-2.3,11.4l1.1,0.8c1.6-0.6,3.2-1,4.9-1c1,0,1.9,0.1,2.9,0.3V27l-24.3-14
		C71.6,15,70.2,16.7,68.5,18.1z M80.9,71v-1l-1.1-0.8c-5.3,4.5-12.2,7.1-19.2,7.1c-7.2,0-14.1-2.5-19.4-7.1l-1,0.8v1
		c0,2.2-0.5,4.3-1.5,6l22,12.7L82.5,77C81.5,75.2,80.9,73.1,80.9,71z M70.8,54.7c0.3-0.3,0.5-0.8,0.8-1.1c1.3-2,2.1-4.3,2.1-6.9
		c0-6.9-5.4-12.5-12.2-12.8c-0.3-0.1-0.5-0.1-0.8-0.1c-0.2,0-0.4,0.1-0.7,0.1c-6.9,0.1-12.2,5.9-12.2,12.8c0,2.5,0.7,4.9,2.1,6.9
		c0.3,0.4,0.5,0.8,0.8,1.1c2.3,3,5.9,4.8,10,4.8C64.7,59.5,68.3,57.7,70.8,54.7z"/>
</g>
</svg>
